G04 #@! TF.FileFunction,Soldermask,Bot*
%FSLAX46Y46*%
G04 Gerber Fmt 4.6, Leading zero omitted, Abs format (unit mm)*
G04 Created by KiCad (PCBNEW 4.0.6) date 06/30/17 10:23:32*
%MOMM*%
%LPD*%
G01*
G04 APERTURE LIST*
%ADD10C,0.100000*%
%ADD11C,3.502000*%
%ADD12C,1.048360*%
%ADD13C,2.079600*%
G04 APERTURE END LIST*
D10*
D11*
X141732000Y-108966000D03*
X110744000Y-108966000D03*
X79756000Y-108966000D03*
X141732000Y-42418000D03*
X110744000Y-42418000D03*
D12*
X126867920Y-110276640D03*
X123068080Y-110276640D03*
X95879920Y-110276640D03*
X92080080Y-110276640D03*
X64891920Y-110276640D03*
X61092080Y-110276640D03*
X126867920Y-43728640D03*
X123068080Y-43728640D03*
X95879920Y-43728640D03*
X92080080Y-43728640D03*
D11*
X117348000Y-108966000D03*
X86360000Y-108966000D03*
X55372000Y-108966000D03*
X117348000Y-42418000D03*
X86360000Y-42418000D03*
D13*
X115824000Y-170434000D03*
X115824000Y-167894000D03*
X118364000Y-170434000D03*
X118364000Y-167894000D03*
X120904000Y-170434000D03*
X120904000Y-167894000D03*
X123444000Y-170434000D03*
X123444000Y-167894000D03*
X84836000Y-170434000D03*
X84836000Y-167894000D03*
X87376000Y-170434000D03*
X87376000Y-167894000D03*
X89916000Y-170434000D03*
X89916000Y-167894000D03*
X92456000Y-170434000D03*
X92456000Y-167894000D03*
X53848000Y-170434000D03*
X53848000Y-167894000D03*
X56388000Y-170434000D03*
X56388000Y-167894000D03*
X58928000Y-170434000D03*
X58928000Y-167894000D03*
X61468000Y-170434000D03*
X61468000Y-167894000D03*
X115824000Y-103886000D03*
X115824000Y-101346000D03*
X118364000Y-103886000D03*
X118364000Y-101346000D03*
X120904000Y-103886000D03*
X120904000Y-101346000D03*
X123444000Y-103886000D03*
X123444000Y-101346000D03*
X84836000Y-103886000D03*
X84836000Y-101346000D03*
X87376000Y-103886000D03*
X87376000Y-101346000D03*
X89916000Y-103886000D03*
X89916000Y-101346000D03*
X92456000Y-103886000D03*
X92456000Y-101346000D03*
X143256000Y-160274000D03*
X143256000Y-157734000D03*
X143256000Y-155194000D03*
X143256000Y-152654000D03*
X112268000Y-160274000D03*
X112268000Y-157734000D03*
X112268000Y-155194000D03*
X112268000Y-152654000D03*
X81280000Y-160274000D03*
X81280000Y-157734000D03*
X81280000Y-155194000D03*
X81280000Y-152654000D03*
X143256000Y-93726000D03*
X143256000Y-91186000D03*
X143256000Y-88646000D03*
X143256000Y-86106000D03*
X112268000Y-93726000D03*
X112268000Y-91186000D03*
X112268000Y-88646000D03*
X112268000Y-86106000D03*
X143256000Y-170434000D03*
X143256000Y-167894000D03*
X143256000Y-165354000D03*
X143256000Y-162814000D03*
X112268000Y-170434000D03*
X112268000Y-167894000D03*
X112268000Y-165354000D03*
X112268000Y-162814000D03*
X81280000Y-170434000D03*
X81280000Y-167894000D03*
X81280000Y-165354000D03*
X81280000Y-162814000D03*
X143256000Y-103886000D03*
X143256000Y-101346000D03*
X143256000Y-98806000D03*
X143256000Y-96266000D03*
X112268000Y-103886000D03*
X112268000Y-101346000D03*
X112268000Y-98806000D03*
X112268000Y-96266000D03*
X135636000Y-167894000D03*
X135636000Y-170434000D03*
X133096000Y-167894000D03*
X133096000Y-170434000D03*
X130556000Y-167894000D03*
X130556000Y-170434000D03*
X104648000Y-167894000D03*
X104648000Y-170434000D03*
X102108000Y-167894000D03*
X102108000Y-170434000D03*
X99568000Y-167894000D03*
X99568000Y-170434000D03*
X73660000Y-167894000D03*
X73660000Y-170434000D03*
X71120000Y-167894000D03*
X71120000Y-170434000D03*
X68580000Y-167894000D03*
X68580000Y-170434000D03*
X135636000Y-101346000D03*
X135636000Y-103886000D03*
X133096000Y-101346000D03*
X133096000Y-103886000D03*
X130556000Y-101346000D03*
X130556000Y-103886000D03*
X104648000Y-101346000D03*
X104648000Y-103886000D03*
X102108000Y-101346000D03*
X102108000Y-103886000D03*
X99568000Y-101346000D03*
X99568000Y-103886000D03*
X53848000Y-103886000D03*
X53848000Y-101346000D03*
X56388000Y-103886000D03*
X56388000Y-101346000D03*
X58928000Y-103886000D03*
X58928000Y-101346000D03*
X61468000Y-103886000D03*
X61468000Y-101346000D03*
X81280000Y-103886000D03*
X81280000Y-101346000D03*
X81280000Y-98806000D03*
X81280000Y-96266000D03*
D12*
X64891920Y-43728640D03*
X61092080Y-43728640D03*
D13*
X73660000Y-101346000D03*
X73660000Y-103886000D03*
X71120000Y-101346000D03*
X71120000Y-103886000D03*
X68580000Y-101346000D03*
X68580000Y-103886000D03*
X81280000Y-93726000D03*
X81280000Y-91186000D03*
X81280000Y-88646000D03*
X81280000Y-86106000D03*
D11*
X79756000Y-42418000D03*
X55372000Y-42418000D03*
M02*
