G04 #@! TF.FileFunction,Soldermask,Top*
%FSLAX46Y46*%
G04 Gerber Fmt 4.6, Leading zero omitted, Abs format (unit mm)*
G04 Created by KiCad (PCBNEW 4.0.6) date 06/30/17 10:23:32*
%MOMM*%
%LPD*%
G01*
G04 APERTURE LIST*
%ADD10C,0.100000*%
%ADD11R,0.700000X1.100000*%
%ADD12R,1.398880X1.299820*%
%ADD13R,1.000000X0.950000*%
%ADD14R,1.100000X0.700000*%
%ADD15R,1.000000X1.000000*%
%ADD16R,0.950000X1.000000*%
%ADD17R,1.398880X0.748640*%
%ADD18R,0.748640X1.398880*%
%ADD19C,3.502000*%
%ADD20R,1.099160X0.997560*%
%ADD21R,1.028040X0.829920*%
%ADD22R,1.198220X4.799940*%
%ADD23R,1.797660X3.598520*%
%ADD24R,1.398880X0.799440*%
%ADD25C,0.835000*%
%ADD26R,0.598780X1.647800*%
%ADD27R,1.998320X1.698600*%
%ADD28R,2.699360X1.698600*%
%ADD29C,1.048360*%
%ADD30R,1.724000X0.962000*%
%ADD31R,2.399640X1.048360*%
%ADD32R,1.249020X1.198220*%
%ADD33O,2.105000X0.649580*%
%ADD34C,2.079600*%
%ADD35R,1.470000X0.758800*%
%ADD36R,0.758800X1.470000*%
%ADD37R,2.198980X0.799440*%
%ADD38R,0.799440X2.198980*%
G04 APERTURE END LIST*
D10*
D11*
X131720000Y-118274000D03*
X130220000Y-118274000D03*
X100732000Y-118274000D03*
X99232000Y-118274000D03*
X69744000Y-118274000D03*
X68244000Y-118274000D03*
X131720000Y-51726000D03*
X130220000Y-51726000D03*
X100732000Y-51726000D03*
X99232000Y-51726000D03*
D12*
X128173480Y-116220240D03*
X125826520Y-116220240D03*
X125826520Y-117967760D03*
X128173480Y-117967760D03*
X97185480Y-116220240D03*
X94838520Y-116220240D03*
X94838520Y-117967760D03*
X97185480Y-117967760D03*
X66197480Y-116220240D03*
X63850520Y-116220240D03*
X63850520Y-117967760D03*
X66197480Y-117967760D03*
X128173480Y-49672240D03*
X125826520Y-49672240D03*
X125826520Y-51419760D03*
X128173480Y-51419760D03*
X97185480Y-49672240D03*
X94838520Y-49672240D03*
X94838520Y-51419760D03*
X97185480Y-51419760D03*
D13*
X126670000Y-119674000D03*
X128170000Y-119674000D03*
X95682000Y-119674000D03*
X97182000Y-119674000D03*
X64694000Y-119674000D03*
X66194000Y-119674000D03*
X126670000Y-53126000D03*
X128170000Y-53126000D03*
X95682000Y-53126000D03*
X97182000Y-53126000D03*
D11*
X131720000Y-116524000D03*
X130220000Y-116524000D03*
X100732000Y-116524000D03*
X99232000Y-116524000D03*
X69744000Y-116524000D03*
X68244000Y-116524000D03*
X131720000Y-49976000D03*
X130220000Y-49976000D03*
X100732000Y-49976000D03*
X99232000Y-49976000D03*
D14*
X128720000Y-129020000D03*
X128720000Y-127520000D03*
X97732000Y-129020000D03*
X97732000Y-127520000D03*
X66744000Y-129020000D03*
X66744000Y-127520000D03*
X128720000Y-62472000D03*
X128720000Y-60972000D03*
X97732000Y-62472000D03*
X97732000Y-60972000D03*
X126492000Y-127520000D03*
X126492000Y-129020000D03*
X95504000Y-127520000D03*
X95504000Y-129020000D03*
X64516000Y-127520000D03*
X64516000Y-129020000D03*
X126492000Y-60972000D03*
X126492000Y-62472000D03*
X95504000Y-60972000D03*
X95504000Y-62472000D03*
D15*
X129578000Y-125476000D03*
X127978000Y-125476000D03*
X98590000Y-125476000D03*
X96990000Y-125476000D03*
X67602000Y-125476000D03*
X66002000Y-125476000D03*
X129578000Y-58928000D03*
X127978000Y-58928000D03*
X98590000Y-58928000D03*
X96990000Y-58928000D03*
D14*
X128220000Y-132224000D03*
X128220000Y-130724000D03*
X97232000Y-132224000D03*
X97232000Y-130724000D03*
X66244000Y-132224000D03*
X66244000Y-130724000D03*
X128220000Y-65676000D03*
X128220000Y-64176000D03*
X97232000Y-65676000D03*
X97232000Y-64176000D03*
X130620000Y-130724000D03*
X130620000Y-132224000D03*
X99632000Y-130724000D03*
X99632000Y-132224000D03*
X68644000Y-130724000D03*
X68644000Y-132224000D03*
X130620000Y-64176000D03*
X130620000Y-65676000D03*
X99632000Y-64176000D03*
X99632000Y-65676000D03*
X130810000Y-129020000D03*
X130810000Y-127520000D03*
X99822000Y-129020000D03*
X99822000Y-127520000D03*
X68834000Y-129020000D03*
X68834000Y-127520000D03*
X130810000Y-62472000D03*
X130810000Y-60972000D03*
X99822000Y-62472000D03*
X99822000Y-60972000D03*
D15*
X137198000Y-125476000D03*
X135598000Y-125476000D03*
X106210000Y-125476000D03*
X104610000Y-125476000D03*
X75222000Y-125476000D03*
X73622000Y-125476000D03*
X137198000Y-58928000D03*
X135598000Y-58928000D03*
X106210000Y-58928000D03*
X104610000Y-58928000D03*
D16*
X143002000Y-129020000D03*
X143002000Y-127520000D03*
X112014000Y-129020000D03*
X112014000Y-127520000D03*
X81026000Y-129020000D03*
X81026000Y-127520000D03*
X143002000Y-62472000D03*
X143002000Y-60972000D03*
X112014000Y-62472000D03*
X112014000Y-60972000D03*
D17*
X139981940Y-129219960D03*
X139981940Y-128270000D03*
X139981940Y-127320040D03*
X137386060Y-127320040D03*
X137386060Y-129219960D03*
X108993940Y-129219960D03*
X108993940Y-128270000D03*
X108993940Y-127320040D03*
X106398060Y-127320040D03*
X106398060Y-129219960D03*
X78005940Y-129219960D03*
X78005940Y-128270000D03*
X78005940Y-127320040D03*
X75410060Y-127320040D03*
X75410060Y-129219960D03*
X139981940Y-62671960D03*
X139981940Y-61722000D03*
X139981940Y-60772040D03*
X137386060Y-60772040D03*
X137386060Y-62671960D03*
X108993940Y-62671960D03*
X108993940Y-61722000D03*
X108993940Y-60772040D03*
X106398060Y-60772040D03*
X106398060Y-62671960D03*
D15*
X133420000Y-131474000D03*
X135020000Y-131474000D03*
X102432000Y-131474000D03*
X104032000Y-131474000D03*
X71444000Y-131474000D03*
X73044000Y-131474000D03*
X133420000Y-64926000D03*
X135020000Y-64926000D03*
X102432000Y-64926000D03*
X104032000Y-64926000D03*
X131534000Y-125476000D03*
X133134000Y-125476000D03*
X100546000Y-125476000D03*
X102146000Y-125476000D03*
X69558000Y-125476000D03*
X71158000Y-125476000D03*
X131534000Y-58928000D03*
X133134000Y-58928000D03*
X100546000Y-58928000D03*
X102146000Y-58928000D03*
D16*
X134620000Y-129020000D03*
X134620000Y-127520000D03*
X103632000Y-129020000D03*
X103632000Y-127520000D03*
X72644000Y-129020000D03*
X72644000Y-127520000D03*
X134620000Y-62472000D03*
X134620000Y-60972000D03*
X103632000Y-62472000D03*
X103632000Y-60972000D03*
D13*
X139712000Y-125222000D03*
X141212000Y-125222000D03*
X108724000Y-125222000D03*
X110224000Y-125222000D03*
X77736000Y-125222000D03*
X79236000Y-125222000D03*
X139712000Y-58674000D03*
X141212000Y-58674000D03*
X108724000Y-58674000D03*
X110224000Y-58674000D03*
D14*
X143470000Y-120024000D03*
X143470000Y-121524000D03*
X112482000Y-120024000D03*
X112482000Y-121524000D03*
X81494000Y-120024000D03*
X81494000Y-121524000D03*
X143470000Y-53476000D03*
X143470000Y-54976000D03*
X112482000Y-53476000D03*
X112482000Y-54976000D03*
D16*
X141220000Y-120024000D03*
X141220000Y-121524000D03*
X110232000Y-120024000D03*
X110232000Y-121524000D03*
X79244000Y-120024000D03*
X79244000Y-121524000D03*
X141220000Y-53476000D03*
X141220000Y-54976000D03*
X110232000Y-53476000D03*
X110232000Y-54976000D03*
D18*
X134770040Y-122071940D03*
X135720000Y-122071940D03*
X136669960Y-122071940D03*
X136669960Y-119476060D03*
X134770040Y-119476060D03*
X103782040Y-122071940D03*
X104732000Y-122071940D03*
X105681960Y-122071940D03*
X105681960Y-119476060D03*
X103782040Y-119476060D03*
X72794040Y-122071940D03*
X73744000Y-122071940D03*
X74693960Y-122071940D03*
X74693960Y-119476060D03*
X72794040Y-119476060D03*
X134770040Y-55523940D03*
X135720000Y-55523940D03*
X136669960Y-55523940D03*
X136669960Y-52928060D03*
X134770040Y-52928060D03*
X103782040Y-55523940D03*
X104732000Y-55523940D03*
X105681960Y-55523940D03*
X105681960Y-52928060D03*
X103782040Y-52928060D03*
D16*
X138970000Y-121524000D03*
X138970000Y-120024000D03*
X107982000Y-121524000D03*
X107982000Y-120024000D03*
X76994000Y-121524000D03*
X76994000Y-120024000D03*
X138970000Y-54976000D03*
X138970000Y-53476000D03*
X107982000Y-54976000D03*
X107982000Y-53476000D03*
D19*
X141732000Y-108966000D03*
X110744000Y-108966000D03*
X79756000Y-108966000D03*
X141732000Y-42418000D03*
X110744000Y-42418000D03*
D20*
X139218220Y-117973960D03*
X139218220Y-116074040D03*
X137120180Y-117024000D03*
X108230220Y-117973960D03*
X108230220Y-116074040D03*
X106132180Y-117024000D03*
X77242220Y-117973960D03*
X77242220Y-116074040D03*
X75144180Y-117024000D03*
X139218220Y-51425960D03*
X139218220Y-49526040D03*
X137120180Y-50476000D03*
X108230220Y-51425960D03*
X108230220Y-49526040D03*
X106132180Y-50476000D03*
D21*
X141220000Y-118172080D03*
X141220000Y-115875920D03*
X110232000Y-118172080D03*
X110232000Y-115875920D03*
X79244000Y-118172080D03*
X79244000Y-115875920D03*
X141220000Y-51624080D03*
X141220000Y-49327920D03*
X110232000Y-51624080D03*
X110232000Y-49327920D03*
D22*
X133367780Y-113146840D03*
X135364220Y-113146840D03*
D23*
X130967480Y-107950000D03*
X137764520Y-107950000D03*
D22*
X102379780Y-113146840D03*
X104376220Y-113146840D03*
D23*
X99979480Y-107950000D03*
X106776520Y-107950000D03*
D22*
X71391780Y-113146840D03*
X73388220Y-113146840D03*
D23*
X68991480Y-107950000D03*
X75788520Y-107950000D03*
D22*
X133367780Y-46598840D03*
X135364220Y-46598840D03*
D23*
X130967480Y-41402000D03*
X137764520Y-41402000D03*
D22*
X102379780Y-46598840D03*
X104376220Y-46598840D03*
D23*
X99979480Y-41402000D03*
X106776520Y-41402000D03*
D13*
X124220000Y-121774000D03*
X125720000Y-121774000D03*
X93232000Y-121774000D03*
X94732000Y-121774000D03*
X62244000Y-121774000D03*
X63744000Y-121774000D03*
X124220000Y-55226000D03*
X125720000Y-55226000D03*
X93232000Y-55226000D03*
X94732000Y-55226000D03*
D16*
X124820000Y-130724000D03*
X124820000Y-132224000D03*
X93832000Y-130724000D03*
X93832000Y-132224000D03*
X62844000Y-130724000D03*
X62844000Y-132224000D03*
X124820000Y-64176000D03*
X124820000Y-65676000D03*
X93832000Y-64176000D03*
X93832000Y-65676000D03*
X120650000Y-132068000D03*
X120650000Y-130568000D03*
X89662000Y-132068000D03*
X89662000Y-130568000D03*
X58674000Y-132068000D03*
X58674000Y-130568000D03*
X120650000Y-65520000D03*
X120650000Y-64020000D03*
X89662000Y-65520000D03*
X89662000Y-64020000D03*
D15*
X125730000Y-125476000D03*
X124130000Y-125476000D03*
X94742000Y-125476000D03*
X93142000Y-125476000D03*
X63754000Y-125476000D03*
X62154000Y-125476000D03*
X125730000Y-58928000D03*
X124130000Y-58928000D03*
X94742000Y-58928000D03*
X93142000Y-58928000D03*
D24*
X121417080Y-124841000D03*
X121417080Y-123571000D03*
X121417080Y-122301000D03*
X121417080Y-121031000D03*
X121417080Y-119761000D03*
X121417080Y-118491000D03*
X121417080Y-117221000D03*
X121417080Y-115951000D03*
X115818920Y-115951000D03*
X115818920Y-117221000D03*
X115818920Y-118491000D03*
X115818920Y-119761000D03*
X115818920Y-121031000D03*
X115818920Y-122301000D03*
X115818920Y-123571000D03*
X115818920Y-124841000D03*
X90429080Y-124841000D03*
X90429080Y-123571000D03*
X90429080Y-122301000D03*
X90429080Y-121031000D03*
X90429080Y-119761000D03*
X90429080Y-118491000D03*
X90429080Y-117221000D03*
X90429080Y-115951000D03*
X84830920Y-115951000D03*
X84830920Y-117221000D03*
X84830920Y-118491000D03*
X84830920Y-119761000D03*
X84830920Y-121031000D03*
X84830920Y-122301000D03*
X84830920Y-123571000D03*
X84830920Y-124841000D03*
X59441080Y-124841000D03*
X59441080Y-123571000D03*
X59441080Y-122301000D03*
X59441080Y-121031000D03*
X59441080Y-119761000D03*
X59441080Y-118491000D03*
X59441080Y-117221000D03*
X59441080Y-115951000D03*
X53842920Y-115951000D03*
X53842920Y-117221000D03*
X53842920Y-118491000D03*
X53842920Y-119761000D03*
X53842920Y-121031000D03*
X53842920Y-122301000D03*
X53842920Y-123571000D03*
X53842920Y-124841000D03*
X121417080Y-58293000D03*
X121417080Y-57023000D03*
X121417080Y-55753000D03*
X121417080Y-54483000D03*
X121417080Y-53213000D03*
X121417080Y-51943000D03*
X121417080Y-50673000D03*
X121417080Y-49403000D03*
X115818920Y-49403000D03*
X115818920Y-50673000D03*
X115818920Y-51943000D03*
X115818920Y-53213000D03*
X115818920Y-54483000D03*
X115818920Y-55753000D03*
X115818920Y-57023000D03*
X115818920Y-58293000D03*
X90429080Y-58293000D03*
X90429080Y-57023000D03*
X90429080Y-55753000D03*
X90429080Y-54483000D03*
X90429080Y-53213000D03*
X90429080Y-51943000D03*
X90429080Y-50673000D03*
X90429080Y-49403000D03*
X84830920Y-49403000D03*
X84830920Y-50673000D03*
X84830920Y-51943000D03*
X84830920Y-53213000D03*
X84830920Y-54483000D03*
X84830920Y-55753000D03*
X84830920Y-57023000D03*
X84830920Y-58293000D03*
D16*
X122936000Y-129020000D03*
X122936000Y-127520000D03*
X91948000Y-129020000D03*
X91948000Y-127520000D03*
X60960000Y-129020000D03*
X60960000Y-127520000D03*
X122936000Y-62472000D03*
X122936000Y-60972000D03*
X91948000Y-62472000D03*
X91948000Y-60972000D03*
X115824000Y-129020000D03*
X115824000Y-127520000D03*
X84836000Y-129020000D03*
X84836000Y-127520000D03*
X53848000Y-129020000D03*
X53848000Y-127520000D03*
X115824000Y-62472000D03*
X115824000Y-60972000D03*
X84836000Y-62472000D03*
X84836000Y-60972000D03*
D14*
X118110000Y-127520000D03*
X118110000Y-129020000D03*
X87122000Y-127520000D03*
X87122000Y-129020000D03*
X56134000Y-127520000D03*
X56134000Y-129020000D03*
X118110000Y-60972000D03*
X118110000Y-62472000D03*
X87122000Y-60972000D03*
X87122000Y-62472000D03*
D25*
X115062000Y-112776000D03*
X84074000Y-112776000D03*
X53086000Y-112776000D03*
X115062000Y-46228000D03*
X84074000Y-46228000D03*
D13*
X128120000Y-114554000D03*
X126620000Y-114554000D03*
X97132000Y-114554000D03*
X95632000Y-114554000D03*
X66144000Y-114554000D03*
X64644000Y-114554000D03*
X128120000Y-48006000D03*
X126620000Y-48006000D03*
X97132000Y-48006000D03*
X95632000Y-48006000D03*
D26*
X124968000Y-110799880D03*
X125615700Y-110799880D03*
X123670060Y-110799880D03*
X124320300Y-110799880D03*
D27*
X128651000Y-108077000D03*
X121285000Y-108077000D03*
D28*
X124968000Y-108077000D03*
D26*
X126265940Y-110799880D03*
D29*
X126867920Y-110276640D03*
X123068080Y-110276640D03*
D26*
X93980000Y-110799880D03*
X94627700Y-110799880D03*
X92682060Y-110799880D03*
X93332300Y-110799880D03*
D27*
X97663000Y-108077000D03*
X90297000Y-108077000D03*
D28*
X93980000Y-108077000D03*
D26*
X95277940Y-110799880D03*
D29*
X95879920Y-110276640D03*
X92080080Y-110276640D03*
D26*
X62992000Y-110799880D03*
X63639700Y-110799880D03*
X61694060Y-110799880D03*
X62344300Y-110799880D03*
D27*
X66675000Y-108077000D03*
X59309000Y-108077000D03*
D28*
X62992000Y-108077000D03*
D26*
X64289940Y-110799880D03*
D29*
X64891920Y-110276640D03*
X61092080Y-110276640D03*
D26*
X124968000Y-44251880D03*
X125615700Y-44251880D03*
X123670060Y-44251880D03*
X124320300Y-44251880D03*
D27*
X128651000Y-41529000D03*
X121285000Y-41529000D03*
D28*
X124968000Y-41529000D03*
D26*
X126265940Y-44251880D03*
D29*
X126867920Y-43728640D03*
X123068080Y-43728640D03*
D26*
X93980000Y-44251880D03*
X94627700Y-44251880D03*
X92682060Y-44251880D03*
X93332300Y-44251880D03*
D27*
X97663000Y-41529000D03*
X90297000Y-41529000D03*
D28*
X93980000Y-41529000D03*
D26*
X95277940Y-44251880D03*
D29*
X95879920Y-43728640D03*
X92080080Y-43728640D03*
D19*
X117348000Y-108966000D03*
X86360000Y-108966000D03*
X55372000Y-108966000D03*
X117348000Y-42418000D03*
X86360000Y-42418000D03*
D14*
X120070000Y-138374000D03*
X120070000Y-136874000D03*
X89082000Y-138374000D03*
X89082000Y-136874000D03*
X58094000Y-138374000D03*
X58094000Y-136874000D03*
X120070000Y-71826000D03*
X120070000Y-70326000D03*
X89082000Y-71826000D03*
X89082000Y-70326000D03*
D30*
X115426000Y-142769000D03*
X121014000Y-142769000D03*
X115426000Y-146579000D03*
X121014000Y-146579000D03*
X84438000Y-142769000D03*
X90026000Y-142769000D03*
X84438000Y-146579000D03*
X90026000Y-146579000D03*
X53450000Y-142769000D03*
X59038000Y-142769000D03*
X53450000Y-146579000D03*
X59038000Y-146579000D03*
X115426000Y-76221000D03*
X121014000Y-76221000D03*
X115426000Y-80031000D03*
X121014000Y-80031000D03*
X84438000Y-76221000D03*
X90026000Y-76221000D03*
X84438000Y-80031000D03*
X90026000Y-80031000D03*
D14*
X119620000Y-150024000D03*
X119620000Y-148524000D03*
X88632000Y-150024000D03*
X88632000Y-148524000D03*
X57644000Y-150024000D03*
X57644000Y-148524000D03*
X119620000Y-83476000D03*
X119620000Y-81976000D03*
X88632000Y-83476000D03*
X88632000Y-81976000D03*
D16*
X121820000Y-148524000D03*
X121820000Y-150024000D03*
X90832000Y-148524000D03*
X90832000Y-150024000D03*
X59844000Y-148524000D03*
X59844000Y-150024000D03*
X121820000Y-81976000D03*
X121820000Y-83476000D03*
X90832000Y-81976000D03*
X90832000Y-83476000D03*
D31*
X116570000Y-137649860D03*
X116570000Y-140398140D03*
D32*
X118094000Y-139024000D03*
X115046000Y-139024000D03*
D31*
X85582000Y-137649860D03*
X85582000Y-140398140D03*
D32*
X87106000Y-139024000D03*
X84058000Y-139024000D03*
D31*
X54594000Y-137649860D03*
X54594000Y-140398140D03*
D32*
X56118000Y-139024000D03*
X53070000Y-139024000D03*
D31*
X116570000Y-71101860D03*
X116570000Y-73850140D03*
D32*
X118094000Y-72476000D03*
X115046000Y-72476000D03*
D31*
X85582000Y-71101860D03*
X85582000Y-73850140D03*
D32*
X87106000Y-72476000D03*
X84058000Y-72476000D03*
D15*
X123444000Y-162814000D03*
X123444000Y-161214000D03*
X92456000Y-162814000D03*
X92456000Y-161214000D03*
X61468000Y-162814000D03*
X61468000Y-161214000D03*
X123444000Y-96266000D03*
X123444000Y-94666000D03*
X92456000Y-96266000D03*
X92456000Y-94666000D03*
X118364000Y-162890000D03*
X118364000Y-161290000D03*
X87376000Y-162890000D03*
X87376000Y-161290000D03*
X56388000Y-162890000D03*
X56388000Y-161290000D03*
X118364000Y-96342000D03*
X118364000Y-94742000D03*
X87376000Y-96342000D03*
X87376000Y-94742000D03*
X120904000Y-162852000D03*
X120904000Y-161252000D03*
X89916000Y-162852000D03*
X89916000Y-161252000D03*
X58928000Y-162852000D03*
X58928000Y-161252000D03*
X120904000Y-96304000D03*
X120904000Y-94704000D03*
X89916000Y-96304000D03*
X89916000Y-94704000D03*
D14*
X126492000Y-155460000D03*
X126492000Y-156960000D03*
X95504000Y-155460000D03*
X95504000Y-156960000D03*
X64516000Y-155460000D03*
X64516000Y-156960000D03*
X126492000Y-88912000D03*
X126492000Y-90412000D03*
X95504000Y-88912000D03*
X95504000Y-90412000D03*
D33*
X126492000Y-159837120D03*
X126492000Y-161036000D03*
X126492000Y-162234880D03*
X95504000Y-159837120D03*
X95504000Y-161036000D03*
X95504000Y-162234880D03*
X64516000Y-159837120D03*
X64516000Y-161036000D03*
X64516000Y-162234880D03*
X126492000Y-93289120D03*
X126492000Y-94488000D03*
X126492000Y-95686880D03*
X95504000Y-93289120D03*
X95504000Y-94488000D03*
X95504000Y-95686880D03*
D15*
X126200000Y-152908000D03*
X127800000Y-152908000D03*
X95212000Y-152908000D03*
X96812000Y-152908000D03*
X64224000Y-152908000D03*
X65824000Y-152908000D03*
X126200000Y-86360000D03*
X127800000Y-86360000D03*
X95212000Y-86360000D03*
X96812000Y-86360000D03*
D14*
X120904000Y-165584000D03*
X120904000Y-164084000D03*
X89916000Y-165584000D03*
X89916000Y-164084000D03*
X58928000Y-165584000D03*
X58928000Y-164084000D03*
X120904000Y-99036000D03*
X120904000Y-97536000D03*
X89916000Y-99036000D03*
X89916000Y-97536000D03*
X123444000Y-165596000D03*
X123444000Y-164096000D03*
X92456000Y-165596000D03*
X92456000Y-164096000D03*
X61468000Y-165596000D03*
X61468000Y-164096000D03*
X123444000Y-99048000D03*
X123444000Y-97548000D03*
X92456000Y-99048000D03*
X92456000Y-97548000D03*
D34*
X115824000Y-170434000D03*
X115824000Y-167894000D03*
X118364000Y-170434000D03*
X118364000Y-167894000D03*
X120904000Y-170434000D03*
X120904000Y-167894000D03*
X123444000Y-170434000D03*
X123444000Y-167894000D03*
X84836000Y-170434000D03*
X84836000Y-167894000D03*
X87376000Y-170434000D03*
X87376000Y-167894000D03*
X89916000Y-170434000D03*
X89916000Y-167894000D03*
X92456000Y-170434000D03*
X92456000Y-167894000D03*
X53848000Y-170434000D03*
X53848000Y-167894000D03*
X56388000Y-170434000D03*
X56388000Y-167894000D03*
X58928000Y-170434000D03*
X58928000Y-167894000D03*
X61468000Y-170434000D03*
X61468000Y-167894000D03*
X115824000Y-103886000D03*
X115824000Y-101346000D03*
X118364000Y-103886000D03*
X118364000Y-101346000D03*
X120904000Y-103886000D03*
X120904000Y-101346000D03*
X123444000Y-103886000D03*
X123444000Y-101346000D03*
X84836000Y-103886000D03*
X84836000Y-101346000D03*
X87376000Y-103886000D03*
X87376000Y-101346000D03*
X89916000Y-103886000D03*
X89916000Y-101346000D03*
X92456000Y-103886000D03*
X92456000Y-101346000D03*
D14*
X115824000Y-165596000D03*
X115824000Y-164096000D03*
X84836000Y-165596000D03*
X84836000Y-164096000D03*
X53848000Y-165596000D03*
X53848000Y-164096000D03*
X115824000Y-99048000D03*
X115824000Y-97548000D03*
X84836000Y-99048000D03*
X84836000Y-97548000D03*
X118364000Y-165608000D03*
X118364000Y-164108000D03*
X87376000Y-165608000D03*
X87376000Y-164108000D03*
X56388000Y-165608000D03*
X56388000Y-164108000D03*
X118364000Y-99060000D03*
X118364000Y-97560000D03*
X87376000Y-99060000D03*
X87376000Y-97560000D03*
D15*
X115824000Y-162890000D03*
X115824000Y-161290000D03*
X84836000Y-162890000D03*
X84836000Y-161290000D03*
X53848000Y-162890000D03*
X53848000Y-161290000D03*
X115824000Y-96342000D03*
X115824000Y-94742000D03*
X84836000Y-96342000D03*
X84836000Y-94742000D03*
D11*
X142990000Y-138938000D03*
X141490000Y-138938000D03*
X112002000Y-138938000D03*
X110502000Y-138938000D03*
X81014000Y-138938000D03*
X79514000Y-138938000D03*
X142990000Y-72390000D03*
X141490000Y-72390000D03*
X112002000Y-72390000D03*
X110502000Y-72390000D03*
X141490000Y-141732000D03*
X142990000Y-141732000D03*
X110502000Y-141732000D03*
X112002000Y-141732000D03*
X79514000Y-141732000D03*
X81014000Y-141732000D03*
X141490000Y-75184000D03*
X142990000Y-75184000D03*
X110502000Y-75184000D03*
X112002000Y-75184000D03*
D10*
G36*
X137727093Y-152122580D02*
X136985790Y-151381277D01*
X138716717Y-149650350D01*
X139458020Y-150391653D01*
X137727093Y-152122580D01*
X137727093Y-152122580D01*
G37*
G36*
X136667423Y-151062910D02*
X135926120Y-150321607D01*
X137657047Y-148590680D01*
X138398350Y-149331983D01*
X136667423Y-151062910D01*
X136667423Y-151062910D01*
G37*
G36*
X106739093Y-152122580D02*
X105997790Y-151381277D01*
X107728717Y-149650350D01*
X108470020Y-150391653D01*
X106739093Y-152122580D01*
X106739093Y-152122580D01*
G37*
G36*
X105679423Y-151062910D02*
X104938120Y-150321607D01*
X106669047Y-148590680D01*
X107410350Y-149331983D01*
X105679423Y-151062910D01*
X105679423Y-151062910D01*
G37*
G36*
X75751093Y-152122580D02*
X75009790Y-151381277D01*
X76740717Y-149650350D01*
X77482020Y-150391653D01*
X75751093Y-152122580D01*
X75751093Y-152122580D01*
G37*
G36*
X74691423Y-151062910D02*
X73950120Y-150321607D01*
X75681047Y-148590680D01*
X76422350Y-149331983D01*
X74691423Y-151062910D01*
X74691423Y-151062910D01*
G37*
G36*
X137727093Y-85574580D02*
X136985790Y-84833277D01*
X138716717Y-83102350D01*
X139458020Y-83843653D01*
X137727093Y-85574580D01*
X137727093Y-85574580D01*
G37*
G36*
X136667423Y-84514910D02*
X135926120Y-83773607D01*
X137657047Y-82042680D01*
X138398350Y-82783983D01*
X136667423Y-84514910D01*
X136667423Y-84514910D01*
G37*
G36*
X106739093Y-85574580D02*
X105997790Y-84833277D01*
X107728717Y-83102350D01*
X108470020Y-83843653D01*
X106739093Y-85574580D01*
X106739093Y-85574580D01*
G37*
G36*
X105679423Y-84514910D02*
X104938120Y-83773607D01*
X106669047Y-82042680D01*
X107410350Y-82783983D01*
X105679423Y-84514910D01*
X105679423Y-84514910D01*
G37*
D11*
X141478000Y-135890000D03*
X142978000Y-135890000D03*
X110490000Y-135890000D03*
X111990000Y-135890000D03*
X79502000Y-135890000D03*
X81002000Y-135890000D03*
X141478000Y-69342000D03*
X142978000Y-69342000D03*
X110490000Y-69342000D03*
X111990000Y-69342000D03*
D21*
X139192000Y-139567920D03*
X139192000Y-141864080D03*
X108204000Y-139567920D03*
X108204000Y-141864080D03*
X77216000Y-139567920D03*
X77216000Y-141864080D03*
X139192000Y-73019920D03*
X139192000Y-75316080D03*
X108204000Y-73019920D03*
X108204000Y-75316080D03*
D34*
X143256000Y-160274000D03*
X143256000Y-157734000D03*
X143256000Y-155194000D03*
X143256000Y-152654000D03*
X112268000Y-160274000D03*
X112268000Y-157734000D03*
X112268000Y-155194000D03*
X112268000Y-152654000D03*
X81280000Y-160274000D03*
X81280000Y-157734000D03*
X81280000Y-155194000D03*
X81280000Y-152654000D03*
X143256000Y-93726000D03*
X143256000Y-91186000D03*
X143256000Y-88646000D03*
X143256000Y-86106000D03*
X112268000Y-93726000D03*
X112268000Y-91186000D03*
X112268000Y-88646000D03*
X112268000Y-86106000D03*
D25*
X137668000Y-165735000D03*
X106680000Y-165735000D03*
X75692000Y-165735000D03*
X137668000Y-99187000D03*
X106680000Y-99187000D03*
D34*
X143256000Y-170434000D03*
X143256000Y-167894000D03*
X143256000Y-165354000D03*
X143256000Y-162814000D03*
X112268000Y-170434000D03*
X112268000Y-167894000D03*
X112268000Y-165354000D03*
X112268000Y-162814000D03*
X81280000Y-170434000D03*
X81280000Y-167894000D03*
X81280000Y-165354000D03*
X81280000Y-162814000D03*
X143256000Y-103886000D03*
X143256000Y-101346000D03*
X143256000Y-98806000D03*
X143256000Y-96266000D03*
X112268000Y-103886000D03*
X112268000Y-101346000D03*
X112268000Y-98806000D03*
X112268000Y-96266000D03*
X135636000Y-167894000D03*
X135636000Y-170434000D03*
X133096000Y-167894000D03*
X133096000Y-170434000D03*
X130556000Y-167894000D03*
X130556000Y-170434000D03*
X104648000Y-167894000D03*
X104648000Y-170434000D03*
X102108000Y-167894000D03*
X102108000Y-170434000D03*
X99568000Y-167894000D03*
X99568000Y-170434000D03*
X73660000Y-167894000D03*
X73660000Y-170434000D03*
X71120000Y-167894000D03*
X71120000Y-170434000D03*
X68580000Y-167894000D03*
X68580000Y-170434000D03*
X135636000Y-101346000D03*
X135636000Y-103886000D03*
X133096000Y-101346000D03*
X133096000Y-103886000D03*
X130556000Y-101346000D03*
X130556000Y-103886000D03*
X104648000Y-101346000D03*
X104648000Y-103886000D03*
X102108000Y-101346000D03*
X102108000Y-103886000D03*
X99568000Y-101346000D03*
X99568000Y-103886000D03*
D35*
X129057400Y-156458920D03*
X129057400Y-157259020D03*
X129057400Y-158059120D03*
X129057400Y-158859220D03*
X129057400Y-159656780D03*
X129057400Y-160456880D03*
X129057400Y-161256980D03*
X129057400Y-162057080D03*
D36*
X130550920Y-163550600D03*
X131351020Y-163550600D03*
X132151120Y-163550600D03*
X132951220Y-163550600D03*
X133748780Y-163550600D03*
X134548880Y-163550600D03*
X135348980Y-163550600D03*
X136149080Y-163550600D03*
D35*
X137642600Y-162057080D03*
X137642600Y-161256980D03*
X137642600Y-160456880D03*
X137642600Y-159656780D03*
X137642600Y-158859220D03*
X137642600Y-158059120D03*
X137642600Y-157259020D03*
X137642600Y-156458920D03*
D36*
X136149080Y-154965400D03*
X135348980Y-154965400D03*
X134548880Y-154965400D03*
X133748780Y-154965400D03*
X132951220Y-154965400D03*
X132151120Y-154965400D03*
X131351020Y-154965400D03*
X130550920Y-154965400D03*
D35*
X98069400Y-156458920D03*
X98069400Y-157259020D03*
X98069400Y-158059120D03*
X98069400Y-158859220D03*
X98069400Y-159656780D03*
X98069400Y-160456880D03*
X98069400Y-161256980D03*
X98069400Y-162057080D03*
D36*
X99562920Y-163550600D03*
X100363020Y-163550600D03*
X101163120Y-163550600D03*
X101963220Y-163550600D03*
X102760780Y-163550600D03*
X103560880Y-163550600D03*
X104360980Y-163550600D03*
X105161080Y-163550600D03*
D35*
X106654600Y-162057080D03*
X106654600Y-161256980D03*
X106654600Y-160456880D03*
X106654600Y-159656780D03*
X106654600Y-158859220D03*
X106654600Y-158059120D03*
X106654600Y-157259020D03*
X106654600Y-156458920D03*
D36*
X105161080Y-154965400D03*
X104360980Y-154965400D03*
X103560880Y-154965400D03*
X102760780Y-154965400D03*
X101963220Y-154965400D03*
X101163120Y-154965400D03*
X100363020Y-154965400D03*
X99562920Y-154965400D03*
D35*
X67081400Y-156458920D03*
X67081400Y-157259020D03*
X67081400Y-158059120D03*
X67081400Y-158859220D03*
X67081400Y-159656780D03*
X67081400Y-160456880D03*
X67081400Y-161256980D03*
X67081400Y-162057080D03*
D36*
X68574920Y-163550600D03*
X69375020Y-163550600D03*
X70175120Y-163550600D03*
X70975220Y-163550600D03*
X71772780Y-163550600D03*
X72572880Y-163550600D03*
X73372980Y-163550600D03*
X74173080Y-163550600D03*
D35*
X75666600Y-162057080D03*
X75666600Y-161256980D03*
X75666600Y-160456880D03*
X75666600Y-159656780D03*
X75666600Y-158859220D03*
X75666600Y-158059120D03*
X75666600Y-157259020D03*
X75666600Y-156458920D03*
D36*
X74173080Y-154965400D03*
X73372980Y-154965400D03*
X72572880Y-154965400D03*
X71772780Y-154965400D03*
X70975220Y-154965400D03*
X70175120Y-154965400D03*
X69375020Y-154965400D03*
X68574920Y-154965400D03*
D35*
X129057400Y-89910920D03*
X129057400Y-90711020D03*
X129057400Y-91511120D03*
X129057400Y-92311220D03*
X129057400Y-93108780D03*
X129057400Y-93908880D03*
X129057400Y-94708980D03*
X129057400Y-95509080D03*
D36*
X130550920Y-97002600D03*
X131351020Y-97002600D03*
X132151120Y-97002600D03*
X132951220Y-97002600D03*
X133748780Y-97002600D03*
X134548880Y-97002600D03*
X135348980Y-97002600D03*
X136149080Y-97002600D03*
D35*
X137642600Y-95509080D03*
X137642600Y-94708980D03*
X137642600Y-93908880D03*
X137642600Y-93108780D03*
X137642600Y-92311220D03*
X137642600Y-91511120D03*
X137642600Y-90711020D03*
X137642600Y-89910920D03*
D36*
X136149080Y-88417400D03*
X135348980Y-88417400D03*
X134548880Y-88417400D03*
X133748780Y-88417400D03*
X132951220Y-88417400D03*
X132151120Y-88417400D03*
X131351020Y-88417400D03*
X130550920Y-88417400D03*
D35*
X98069400Y-89910920D03*
X98069400Y-90711020D03*
X98069400Y-91511120D03*
X98069400Y-92311220D03*
X98069400Y-93108780D03*
X98069400Y-93908880D03*
X98069400Y-94708980D03*
X98069400Y-95509080D03*
D36*
X99562920Y-97002600D03*
X100363020Y-97002600D03*
X101163120Y-97002600D03*
X101963220Y-97002600D03*
X102760780Y-97002600D03*
X103560880Y-97002600D03*
X104360980Y-97002600D03*
X105161080Y-97002600D03*
D35*
X106654600Y-95509080D03*
X106654600Y-94708980D03*
X106654600Y-93908880D03*
X106654600Y-93108780D03*
X106654600Y-92311220D03*
X106654600Y-91511120D03*
X106654600Y-90711020D03*
X106654600Y-89910920D03*
D36*
X105161080Y-88417400D03*
X104360980Y-88417400D03*
X103560880Y-88417400D03*
X102760780Y-88417400D03*
X101963220Y-88417400D03*
X101163120Y-88417400D03*
X100363020Y-88417400D03*
X99562920Y-88417400D03*
D37*
X123202700Y-137817860D03*
X123202700Y-139019280D03*
X123202700Y-140218160D03*
X123202700Y-141417040D03*
X123202700Y-142615920D03*
X123202700Y-143817340D03*
D38*
X125851920Y-147066000D03*
X127053340Y-147066000D03*
X128252220Y-147066000D03*
X130649980Y-147066000D03*
X131848860Y-147066000D03*
X133050280Y-147066000D03*
D37*
X135699500Y-143817340D03*
X135699500Y-142615920D03*
X135699500Y-141417040D03*
X135699500Y-140218160D03*
X135699500Y-139019280D03*
X135699500Y-137817860D03*
D38*
X133050280Y-134569200D03*
X131848860Y-134569200D03*
X130649980Y-134569200D03*
X128252220Y-134569200D03*
X127053340Y-134569200D03*
X125851920Y-134569200D03*
D37*
X92214700Y-137817860D03*
X92214700Y-139019280D03*
X92214700Y-140218160D03*
X92214700Y-141417040D03*
X92214700Y-142615920D03*
X92214700Y-143817340D03*
D38*
X94863920Y-147066000D03*
X96065340Y-147066000D03*
X97264220Y-147066000D03*
X99661980Y-147066000D03*
X100860860Y-147066000D03*
X102062280Y-147066000D03*
D37*
X104711500Y-143817340D03*
X104711500Y-142615920D03*
X104711500Y-141417040D03*
X104711500Y-140218160D03*
X104711500Y-139019280D03*
X104711500Y-137817860D03*
D38*
X102062280Y-134569200D03*
X100860860Y-134569200D03*
X99661980Y-134569200D03*
X97264220Y-134569200D03*
X96065340Y-134569200D03*
X94863920Y-134569200D03*
D37*
X61226700Y-137817860D03*
X61226700Y-139019280D03*
X61226700Y-140218160D03*
X61226700Y-141417040D03*
X61226700Y-142615920D03*
X61226700Y-143817340D03*
D38*
X63875920Y-147066000D03*
X65077340Y-147066000D03*
X66276220Y-147066000D03*
X68673980Y-147066000D03*
X69872860Y-147066000D03*
X71074280Y-147066000D03*
D37*
X73723500Y-143817340D03*
X73723500Y-142615920D03*
X73723500Y-141417040D03*
X73723500Y-140218160D03*
X73723500Y-139019280D03*
X73723500Y-137817860D03*
D38*
X71074280Y-134569200D03*
X69872860Y-134569200D03*
X68673980Y-134569200D03*
X66276220Y-134569200D03*
X65077340Y-134569200D03*
X63875920Y-134569200D03*
D37*
X123202700Y-71269860D03*
X123202700Y-72471280D03*
X123202700Y-73670160D03*
X123202700Y-74869040D03*
X123202700Y-76067920D03*
X123202700Y-77269340D03*
D38*
X125851920Y-80518000D03*
X127053340Y-80518000D03*
X128252220Y-80518000D03*
X130649980Y-80518000D03*
X131848860Y-80518000D03*
X133050280Y-80518000D03*
D37*
X135699500Y-77269340D03*
X135699500Y-76067920D03*
X135699500Y-74869040D03*
X135699500Y-73670160D03*
X135699500Y-72471280D03*
X135699500Y-71269860D03*
D38*
X133050280Y-68021200D03*
X131848860Y-68021200D03*
X130649980Y-68021200D03*
X128252220Y-68021200D03*
X127053340Y-68021200D03*
X125851920Y-68021200D03*
D37*
X92214700Y-71269860D03*
X92214700Y-72471280D03*
X92214700Y-73670160D03*
X92214700Y-74869040D03*
X92214700Y-76067920D03*
X92214700Y-77269340D03*
D38*
X94863920Y-80518000D03*
X96065340Y-80518000D03*
X97264220Y-80518000D03*
X99661980Y-80518000D03*
X100860860Y-80518000D03*
X102062280Y-80518000D03*
D37*
X104711500Y-77269340D03*
X104711500Y-76067920D03*
X104711500Y-74869040D03*
X104711500Y-73670160D03*
X104711500Y-72471280D03*
X104711500Y-71269860D03*
D38*
X102062280Y-68021200D03*
X100860860Y-68021200D03*
X99661980Y-68021200D03*
X97264220Y-68021200D03*
X96065340Y-68021200D03*
X94863920Y-68021200D03*
D16*
X124020000Y-148524000D03*
X124020000Y-150024000D03*
X93032000Y-148524000D03*
X93032000Y-150024000D03*
X62044000Y-148524000D03*
X62044000Y-150024000D03*
X124020000Y-81976000D03*
X124020000Y-83476000D03*
X93032000Y-81976000D03*
X93032000Y-83476000D03*
D11*
X132576000Y-150368000D03*
X131076000Y-150368000D03*
X101588000Y-150368000D03*
X100088000Y-150368000D03*
X70600000Y-150368000D03*
X69100000Y-150368000D03*
X132576000Y-83820000D03*
X131076000Y-83820000D03*
X101588000Y-83820000D03*
X100088000Y-83820000D03*
D13*
X126262000Y-150368000D03*
X127762000Y-150368000D03*
X95274000Y-150368000D03*
X96774000Y-150368000D03*
X64286000Y-150368000D03*
X65786000Y-150368000D03*
X126262000Y-83820000D03*
X127762000Y-83820000D03*
X95274000Y-83820000D03*
X96774000Y-83820000D03*
D33*
X64516000Y-93289120D03*
X64516000Y-94488000D03*
X64516000Y-95686880D03*
D21*
X79244000Y-51624080D03*
X79244000Y-49327920D03*
D20*
X77242220Y-51425960D03*
X77242220Y-49526040D03*
X75144180Y-50476000D03*
D11*
X69744000Y-49976000D03*
X68244000Y-49976000D03*
X69744000Y-51726000D03*
X68244000Y-51726000D03*
D12*
X66197480Y-49672240D03*
X63850520Y-49672240D03*
X63850520Y-51419760D03*
X66197480Y-51419760D03*
D13*
X64694000Y-53126000D03*
X66194000Y-53126000D03*
X66144000Y-48006000D03*
X64644000Y-48006000D03*
D14*
X66744000Y-62472000D03*
X66744000Y-60972000D03*
D13*
X62244000Y-55226000D03*
X63744000Y-55226000D03*
D16*
X76994000Y-54976000D03*
X76994000Y-53476000D03*
X79244000Y-53476000D03*
X79244000Y-54976000D03*
D18*
X72794040Y-55523940D03*
X73744000Y-55523940D03*
X74693960Y-55523940D03*
X74693960Y-52928060D03*
X72794040Y-52928060D03*
D14*
X81494000Y-53476000D03*
X81494000Y-54976000D03*
D15*
X75222000Y-58928000D03*
X73622000Y-58928000D03*
X71444000Y-64926000D03*
X73044000Y-64926000D03*
D16*
X72644000Y-62472000D03*
X72644000Y-60972000D03*
D15*
X69558000Y-58928000D03*
X71158000Y-58928000D03*
D14*
X68644000Y-64176000D03*
X68644000Y-65676000D03*
X68834000Y-62472000D03*
X68834000Y-60972000D03*
X58094000Y-71826000D03*
X58094000Y-70326000D03*
D16*
X62844000Y-64176000D03*
X62844000Y-65676000D03*
D14*
X66244000Y-65676000D03*
X66244000Y-64176000D03*
D16*
X58674000Y-65520000D03*
X58674000Y-64020000D03*
D15*
X63754000Y-58928000D03*
X62154000Y-58928000D03*
D16*
X60960000Y-62472000D03*
X60960000Y-60972000D03*
D15*
X67602000Y-58928000D03*
X66002000Y-58928000D03*
D14*
X64516000Y-60972000D03*
X64516000Y-62472000D03*
D30*
X53450000Y-76221000D03*
X59038000Y-76221000D03*
X53450000Y-80031000D03*
X59038000Y-80031000D03*
D22*
X71391780Y-46598840D03*
X73388220Y-46598840D03*
D23*
X68991480Y-41402000D03*
X75788520Y-41402000D03*
D25*
X53086000Y-46228000D03*
D37*
X61226700Y-71269860D03*
X61226700Y-72471280D03*
X61226700Y-73670160D03*
X61226700Y-74869040D03*
X61226700Y-76067920D03*
X61226700Y-77269340D03*
D38*
X63875920Y-80518000D03*
X65077340Y-80518000D03*
X66276220Y-80518000D03*
X68673980Y-80518000D03*
X69872860Y-80518000D03*
X71074280Y-80518000D03*
D37*
X73723500Y-77269340D03*
X73723500Y-76067920D03*
X73723500Y-74869040D03*
X73723500Y-73670160D03*
X73723500Y-72471280D03*
X73723500Y-71269860D03*
D38*
X71074280Y-68021200D03*
X69872860Y-68021200D03*
X68673980Y-68021200D03*
X66276220Y-68021200D03*
X65077340Y-68021200D03*
X63875920Y-68021200D03*
D11*
X79502000Y-69342000D03*
X81002000Y-69342000D03*
X81014000Y-72390000D03*
X79514000Y-72390000D03*
X79514000Y-75184000D03*
X81014000Y-75184000D03*
D13*
X77736000Y-58674000D03*
X79236000Y-58674000D03*
X64286000Y-83820000D03*
X65786000Y-83820000D03*
D16*
X53848000Y-62472000D03*
X53848000Y-60972000D03*
X59844000Y-81976000D03*
X59844000Y-83476000D03*
X62044000Y-81976000D03*
X62044000Y-83476000D03*
D34*
X53848000Y-103886000D03*
X53848000Y-101346000D03*
X56388000Y-103886000D03*
X56388000Y-101346000D03*
X58928000Y-103886000D03*
X58928000Y-101346000D03*
X61468000Y-103886000D03*
X61468000Y-101346000D03*
D14*
X56388000Y-99060000D03*
X56388000Y-97560000D03*
X61468000Y-99048000D03*
X61468000Y-97548000D03*
X64516000Y-88912000D03*
X64516000Y-90412000D03*
D24*
X59441080Y-58293000D03*
X59441080Y-57023000D03*
X59441080Y-55753000D03*
X59441080Y-54483000D03*
X59441080Y-53213000D03*
X59441080Y-51943000D03*
X59441080Y-50673000D03*
X59441080Y-49403000D03*
X53842920Y-49403000D03*
X53842920Y-50673000D03*
X53842920Y-51943000D03*
X53842920Y-53213000D03*
X53842920Y-54483000D03*
X53842920Y-55753000D03*
X53842920Y-57023000D03*
X53842920Y-58293000D03*
D35*
X67081400Y-89910920D03*
X67081400Y-90711020D03*
X67081400Y-91511120D03*
X67081400Y-92311220D03*
X67081400Y-93108780D03*
X67081400Y-93908880D03*
X67081400Y-94708980D03*
X67081400Y-95509080D03*
D36*
X68574920Y-97002600D03*
X69375020Y-97002600D03*
X70175120Y-97002600D03*
X70975220Y-97002600D03*
X71772780Y-97002600D03*
X72572880Y-97002600D03*
X73372980Y-97002600D03*
X74173080Y-97002600D03*
D35*
X75666600Y-95509080D03*
X75666600Y-94708980D03*
X75666600Y-93908880D03*
X75666600Y-93108780D03*
X75666600Y-92311220D03*
X75666600Y-91511120D03*
X75666600Y-90711020D03*
X75666600Y-89910920D03*
D36*
X74173080Y-88417400D03*
X73372980Y-88417400D03*
X72572880Y-88417400D03*
X71772780Y-88417400D03*
X70975220Y-88417400D03*
X70175120Y-88417400D03*
X69375020Y-88417400D03*
X68574920Y-88417400D03*
D34*
X81280000Y-103886000D03*
X81280000Y-101346000D03*
X81280000Y-98806000D03*
X81280000Y-96266000D03*
D10*
G36*
X75751093Y-85574580D02*
X75009790Y-84833277D01*
X76740717Y-83102350D01*
X77482020Y-83843653D01*
X75751093Y-85574580D01*
X75751093Y-85574580D01*
G37*
G36*
X74691423Y-84514910D02*
X73950120Y-83773607D01*
X75681047Y-82042680D01*
X76422350Y-82783983D01*
X74691423Y-84514910D01*
X74691423Y-84514910D01*
G37*
D21*
X77216000Y-73019920D03*
X77216000Y-75316080D03*
D15*
X53848000Y-96342000D03*
X53848000Y-94742000D03*
X56388000Y-96342000D03*
X56388000Y-94742000D03*
X58928000Y-96304000D03*
X58928000Y-94704000D03*
X61468000Y-96266000D03*
X61468000Y-94666000D03*
X64224000Y-86360000D03*
X65824000Y-86360000D03*
D14*
X57644000Y-83476000D03*
X57644000Y-81976000D03*
D31*
X54594000Y-71101860D03*
X54594000Y-73850140D03*
D32*
X56118000Y-72476000D03*
X53070000Y-72476000D03*
D26*
X62992000Y-44251880D03*
X63639700Y-44251880D03*
X61694060Y-44251880D03*
X62344300Y-44251880D03*
D27*
X66675000Y-41529000D03*
X59309000Y-41529000D03*
D28*
X62992000Y-41529000D03*
D26*
X64289940Y-44251880D03*
D29*
X64891920Y-43728640D03*
X61092080Y-43728640D03*
D34*
X73660000Y-101346000D03*
X73660000Y-103886000D03*
X71120000Y-101346000D03*
X71120000Y-103886000D03*
X68580000Y-101346000D03*
X68580000Y-103886000D03*
X81280000Y-93726000D03*
X81280000Y-91186000D03*
X81280000Y-88646000D03*
X81280000Y-86106000D03*
D25*
X75692000Y-99187000D03*
D14*
X56134000Y-60972000D03*
X56134000Y-62472000D03*
D11*
X70600000Y-83820000D03*
X69100000Y-83820000D03*
D14*
X53848000Y-99048000D03*
X53848000Y-97548000D03*
X58928000Y-99036000D03*
X58928000Y-97536000D03*
D16*
X81026000Y-62472000D03*
X81026000Y-60972000D03*
D17*
X78005940Y-62671960D03*
X78005940Y-61722000D03*
X78005940Y-60772040D03*
X75410060Y-60772040D03*
X75410060Y-62671960D03*
D19*
X79756000Y-42418000D03*
X55372000Y-42418000D03*
M02*
