G04 #@! TF.FileFunction,Profile,NP*
%FSLAX46Y46*%
G04 Gerber Fmt 4.6, Leading zero omitted, Abs format (unit mm)*
G04 Created by KiCad (PCBNEW 4.0.6) date 06/30/17 10:23:32*
%MOMM*%
%LPD*%
G01*
G04 APERTURE LIST*
%ADD10C,0.100000*%
%ADD11C,0.150000*%
G04 APERTURE END LIST*
D10*
D11*
X38100000Y-105664000D02*
X145796000Y-105664000D01*
X114046000Y-34798000D02*
X114046000Y-187198000D01*
X83058000Y-34798000D02*
X83058000Y-187198000D01*
X144780000Y-105918000D02*
X144780000Y-171958000D01*
X113792000Y-105918000D02*
X113792000Y-171958000D01*
X82804000Y-105918000D02*
X82804000Y-171958000D01*
X144780000Y-39370000D02*
X144780000Y-105410000D01*
X113792000Y-39370000D02*
X113792000Y-105410000D01*
X114300000Y-171958000D02*
X114300000Y-171958000D01*
X83312000Y-171958000D02*
X83312000Y-171958000D01*
X52324000Y-171958000D02*
X52324000Y-171958000D01*
X114300000Y-105410000D02*
X114300000Y-105410000D01*
X83312000Y-105410000D02*
X83312000Y-105410000D01*
X114300000Y-171958000D02*
X144780000Y-171958000D01*
X83312000Y-171958000D02*
X113792000Y-171958000D01*
X52324000Y-171958000D02*
X82804000Y-171958000D01*
X114300000Y-105410000D02*
X144780000Y-105410000D01*
X83312000Y-105410000D02*
X113792000Y-105410000D01*
X114300000Y-171958000D02*
X114300000Y-105918000D01*
X83312000Y-171958000D02*
X83312000Y-105918000D01*
X52324000Y-171958000D02*
X52324000Y-105918000D01*
X114300000Y-105410000D02*
X114300000Y-39370000D01*
X83312000Y-105410000D02*
X83312000Y-39370000D01*
X144780000Y-105918000D02*
X114300000Y-105918000D01*
X113792000Y-105918000D02*
X83312000Y-105918000D01*
X82804000Y-105918000D02*
X52324000Y-105918000D01*
X144780000Y-39370000D02*
X114300000Y-39370000D01*
X113792000Y-39370000D02*
X83312000Y-39370000D01*
X52324000Y-105410000D02*
X52324000Y-39370000D01*
X82804000Y-39370000D02*
X82804000Y-105410000D01*
X82804000Y-39370000D02*
X52324000Y-39370000D01*
X52324000Y-105410000D02*
X82804000Y-105410000D01*
X52324000Y-105410000D02*
X52324000Y-105410000D01*
M02*
