M48
;DRILL file {KiCad 4.0.6} date 08/02/17 18:55:36
;FORMAT={-:-/ absolute / inch / decimal}
FMAT,2
INCH,TZ
T1C0.016
T2C0.040
T3C0.033
T4C0.130
%
G90
G05
M72
T1
X2.06Y-2.52
X2.06Y-3.33
X2.06Y-5.14
X2.06Y-5.95
X2.0657Y-2.3516
X2.0657Y-4.9716
X2.1051Y-2.5681
X2.1051Y-5.1881
X2.1248Y-2.1547
X2.1248Y-4.7747
X2.1346Y-3.2965
X2.1346Y-5.9165
X2.1622Y-2.5583
X2.1622Y-5.1783
X2.1937Y-2.2039
X2.1937Y-4.8239
X2.2016Y-2.6567
X2.2016Y-5.2767
X2.2174Y-2.0425
X2.2174Y-4.6625
X2.2528Y-2.3811
X2.2528Y-5.0011
X2.28Y-1.92
X2.28Y-2.71
X2.28Y-4.54
X2.28Y-5.33
X2.33Y-1.99
X2.33Y-4.61
X2.34Y-1.93
X2.34Y-4.55
X2.3413Y-2.2531
X2.3413Y-4.8731
X2.3906Y-2.0858
X2.3906Y-4.7058
X2.4Y-2.02
X2.4Y-4.64
X2.41Y-2.4
X2.41Y-5.02
X2.43Y-3.41
X2.43Y-3.51
X2.43Y-6.03
X2.43Y-6.13
X2.45Y-3.94
X2.45Y-6.56
X2.4693Y-1.8575
X2.4693Y-4.4775
X2.48Y-3.61
X2.48Y-3.86
X2.48Y-6.23
X2.48Y-6.48
X2.51Y-3.91
X2.51Y-6.53
X2.5382Y-3.513
X2.5382Y-6.133
X2.545Y-1.805
X2.545Y-4.425
X2.57Y-3.48
X2.57Y-6.1
X2.58Y-3.89
X2.58Y-6.51
X2.5953Y-2.0858
X2.5953Y-4.7058
X2.6071Y-3.0701
X2.6071Y-3.4146
X2.6071Y-5.6901
X2.6071Y-6.0346
X2.6465Y-3.4146
X2.6465Y-6.0346
X2.65Y-1.81
X2.65Y-4.43
X2.67Y-1.92
X2.67Y-4.54
X2.7154Y-3.4146
X2.7154Y-6.0346
X2.7291Y-2.4087
X2.7291Y-5.0287
X2.73Y-3.56
X2.73Y-6.18
X2.77Y-3.3
X2.77Y-3.4
X2.77Y-5.92
X2.77Y-6.02
X2.78Y-3.89
X2.78Y-6.51
X2.7843Y-3.2472
X2.7843Y-5.8672
X2.81Y-3.2
X2.81Y-3.41
X2.81Y-5.82
X2.81Y-6.03
X2.83Y-2.65
X2.83Y-5.27
X2.84Y-3.57
X2.84Y-6.19
X2.8433Y-1.9972
X2.8433Y-4.6172
X2.8787Y-2.0465
X2.8787Y-4.6665
X2.92Y-3.81
X2.92Y-6.43
X2.9339Y-3.015
X2.9339Y-5.635
X2.96Y-3.21
X2.96Y-5.83
X3.0008Y-1.8988
X3.0008Y-4.5188
X3.02Y-3.14
X3.02Y-5.76
X3.0205Y-2.2138
X3.0205Y-4.8338
X3.0441Y-2.9205
X3.0441Y-5.5405
X3.08Y-2.41
X3.08Y-5.03
X3.13Y-2.52
X3.13Y-2.91
X3.13Y-5.14
X3.13Y-5.53
X3.28Y-2.52
X3.28Y-3.33
X3.28Y-5.14
X3.28Y-5.95
X3.2857Y-2.3516
X3.2857Y-4.9716
X3.3251Y-2.5681
X3.3251Y-5.1881
X3.3448Y-2.1547
X3.3448Y-4.7747
X3.3546Y-3.2965
X3.3546Y-5.9165
X3.3822Y-2.5583
X3.3822Y-5.1783
X3.4137Y-2.2039
X3.4137Y-4.8239
X3.4216Y-2.6567
X3.4216Y-5.2767
X3.4374Y-2.0425
X3.4374Y-4.6625
X3.4728Y-2.3811
X3.4728Y-5.0011
X3.5Y-1.92
X3.5Y-2.71
X3.5Y-4.54
X3.5Y-5.33
X3.55Y-1.99
X3.55Y-4.61
X3.56Y-1.93
X3.56Y-4.55
X3.5613Y-2.2531
X3.5613Y-4.8731
X3.6106Y-2.0858
X3.6106Y-4.7058
X3.62Y-2.02
X3.62Y-4.64
X3.63Y-2.4
X3.63Y-5.02
X3.65Y-3.41
X3.65Y-3.51
X3.65Y-6.03
X3.65Y-6.13
X3.67Y-3.94
X3.67Y-6.56
X3.6893Y-1.8575
X3.6893Y-4.4775
X3.7Y-3.61
X3.7Y-3.86
X3.7Y-6.23
X3.7Y-6.48
X3.73Y-3.91
X3.73Y-6.53
X3.7582Y-3.513
X3.7582Y-6.133
X3.765Y-1.805
X3.765Y-4.425
X3.79Y-3.48
X3.79Y-6.1
X3.8Y-3.89
X3.8Y-6.51
X3.8153Y-2.0858
X3.8153Y-4.7058
X3.8271Y-3.0701
X3.8271Y-3.4146
X3.8271Y-5.6901
X3.8271Y-6.0346
X3.8665Y-3.4146
X3.8665Y-6.0346
X3.87Y-1.81
X3.87Y-4.43
X3.89Y-1.92
X3.89Y-4.54
X3.9354Y-3.4146
X3.9354Y-6.0346
X3.9491Y-2.4087
X3.9491Y-5.0287
X3.95Y-3.56
X3.95Y-6.18
X3.99Y-3.3
X3.99Y-3.4
X3.99Y-5.92
X3.99Y-6.02
X4.Y-3.89
X4.Y-6.51
X4.0043Y-3.2472
X4.0043Y-5.8672
X4.03Y-3.2
X4.03Y-3.41
X4.03Y-5.82
X4.03Y-6.03
X4.05Y-2.65
X4.05Y-5.27
X4.06Y-3.57
X4.06Y-6.19
X4.0633Y-1.9972
X4.0633Y-4.6172
X4.0987Y-2.0465
X4.0987Y-4.6665
X4.14Y-3.81
X4.14Y-6.43
X4.1539Y-3.015
X4.1539Y-5.635
X4.18Y-3.21
X4.18Y-5.83
X4.2208Y-1.8988
X4.2208Y-4.5188
X4.24Y-3.14
X4.24Y-5.76
X4.2405Y-2.2138
X4.2405Y-4.8338
X4.2641Y-2.9205
X4.2641Y-5.5405
X4.3Y-2.41
X4.3Y-5.03
X4.35Y-2.52
X4.35Y-2.91
X4.35Y-5.14
X4.35Y-5.53
X4.5Y-2.52
X4.5Y-3.33
X4.5Y-5.14
X4.5Y-5.95
X4.5057Y-2.3516
X4.5057Y-4.9716
X4.5451Y-2.5681
X4.5451Y-5.1881
X4.5648Y-2.1547
X4.5648Y-4.7747
X4.5746Y-3.2965
X4.5746Y-5.9165
X4.6022Y-2.5583
X4.6022Y-5.1783
X4.6337Y-2.2039
X4.6337Y-4.8239
X4.6416Y-2.6567
X4.6416Y-5.2767
X4.6574Y-2.0425
X4.6574Y-4.6625
X4.6928Y-2.3811
X4.6928Y-5.0011
X4.72Y-1.92
X4.72Y-2.71
X4.72Y-4.54
X4.72Y-5.33
X4.77Y-1.99
X4.77Y-4.61
X4.78Y-1.93
X4.78Y-4.55
X4.7813Y-2.2531
X4.7813Y-4.8731
X4.8306Y-2.0858
X4.8306Y-4.7058
X4.84Y-2.02
X4.84Y-4.64
X4.85Y-2.4
X4.85Y-5.02
X4.87Y-3.41
X4.87Y-3.51
X4.87Y-6.03
X4.87Y-6.13
X4.89Y-3.94
X4.89Y-6.56
X4.9093Y-1.8575
X4.9093Y-4.4775
X4.92Y-3.61
X4.92Y-3.86
X4.92Y-6.23
X4.92Y-6.48
X4.95Y-3.91
X4.95Y-6.53
X4.9782Y-3.513
X4.9782Y-6.133
X4.985Y-1.805
X4.985Y-4.425
X5.01Y-3.48
X5.01Y-6.1
X5.02Y-3.89
X5.02Y-6.51
X5.0353Y-2.0858
X5.0353Y-4.7058
X5.0471Y-3.0701
X5.0471Y-3.4146
X5.0471Y-5.6901
X5.0471Y-6.0346
X5.0865Y-3.4146
X5.0865Y-6.0346
X5.09Y-1.81
X5.09Y-4.43
X5.11Y-1.92
X5.11Y-4.54
X5.1554Y-3.4146
X5.1554Y-6.0346
X5.1691Y-2.4087
X5.1691Y-5.0287
X5.17Y-3.56
X5.17Y-6.18
X5.21Y-3.3
X5.21Y-3.4
X5.21Y-5.92
X5.21Y-6.02
X5.22Y-3.89
X5.22Y-6.51
X5.2243Y-3.2472
X5.2243Y-5.8672
X5.25Y-3.2
X5.25Y-3.41
X5.25Y-5.82
X5.25Y-6.03
X5.27Y-2.65
X5.27Y-5.27
X5.28Y-3.57
X5.28Y-6.19
X5.2833Y-1.9972
X5.2833Y-4.6172
X5.3187Y-2.0465
X5.3187Y-4.6665
X5.36Y-3.81
X5.36Y-6.43
X5.3739Y-3.015
X5.3739Y-5.635
X5.4Y-3.21
X5.4Y-5.83
X5.4408Y-1.8988
X5.4408Y-4.5188
X5.46Y-3.14
X5.46Y-5.76
X5.4605Y-2.2138
X5.4605Y-4.8338
X5.4841Y-2.9205
X5.4841Y-5.5405
X5.52Y-2.41
X5.52Y-5.03
X5.57Y-2.52
X5.57Y-2.91
X5.57Y-5.14
X5.57Y-5.53
T2
X2.06Y-4.
X2.06Y-4.1
X2.06Y-6.62
X2.06Y-6.72
X2.16Y-4.
X2.16Y-4.1
X2.16Y-6.62
X2.16Y-6.72
X2.26Y-4.
X2.26Y-4.1
X2.26Y-6.62
X2.26Y-6.72
X2.36Y-4.
X2.36Y-4.1
X2.36Y-6.62
X2.36Y-6.72
X2.64Y-4.
X2.64Y-4.1
X2.64Y-6.62
X2.64Y-6.72
X2.74Y-4.
X2.74Y-4.1
X2.74Y-6.62
X2.74Y-6.72
X2.84Y-4.
X2.84Y-4.1
X2.84Y-6.62
X2.84Y-6.72
X3.14Y-3.4
X3.14Y-3.5
X3.14Y-3.6
X3.14Y-3.7
X3.14Y-3.8
X3.14Y-3.9
X3.14Y-4.
X3.14Y-4.1
X3.14Y-6.02
X3.14Y-6.12
X3.14Y-6.22
X3.14Y-6.32
X3.14Y-6.42
X3.14Y-6.52
X3.14Y-6.62
X3.14Y-6.72
X3.28Y-4.
X3.28Y-4.1
X3.28Y-6.62
X3.28Y-6.72
X3.38Y-4.
X3.38Y-4.1
X3.38Y-6.62
X3.38Y-6.72
X3.48Y-4.
X3.48Y-4.1
X3.48Y-6.62
X3.48Y-6.72
X3.58Y-4.
X3.58Y-4.1
X3.58Y-6.62
X3.58Y-6.72
X3.86Y-4.
X3.86Y-4.1
X3.86Y-6.62
X3.86Y-6.72
X3.96Y-4.
X3.96Y-4.1
X3.96Y-6.62
X3.96Y-6.72
X4.06Y-4.
X4.06Y-4.1
X4.06Y-6.62
X4.06Y-6.72
X4.36Y-3.4
X4.36Y-3.5
X4.36Y-3.6
X4.36Y-3.7
X4.36Y-3.8
X4.36Y-3.9
X4.36Y-4.
X4.36Y-4.1
X4.36Y-6.02
X4.36Y-6.12
X4.36Y-6.22
X4.36Y-6.32
X4.36Y-6.42
X4.36Y-6.52
X4.36Y-6.62
X4.36Y-6.72
X4.5Y-4.
X4.5Y-4.1
X4.5Y-6.62
X4.5Y-6.72
X4.6Y-4.
X4.6Y-4.1
X4.6Y-6.62
X4.6Y-6.72
X4.7Y-4.
X4.7Y-4.1
X4.7Y-6.62
X4.7Y-6.72
X4.8Y-4.
X4.8Y-4.1
X4.8Y-6.62
X4.8Y-6.72
X5.08Y-4.
X5.08Y-4.1
X5.08Y-6.62
X5.08Y-6.72
X5.18Y-4.
X5.18Y-4.1
X5.18Y-6.62
X5.18Y-6.72
X5.28Y-4.
X5.28Y-4.1
X5.28Y-6.62
X5.28Y-6.72
X5.58Y-3.4
X5.58Y-3.5
X5.58Y-3.6
X5.58Y-3.7
X5.58Y-3.8
X5.58Y-3.9
X5.58Y-4.
X5.58Y-4.1
X5.58Y-6.02
X5.58Y-6.12
X5.58Y-6.22
X5.58Y-6.32
X5.58Y-6.42
X5.58Y-6.52
X5.58Y-6.62
X5.58Y-6.72
T3
X2.3452Y-1.7316
X2.3452Y-4.3516
X2.4948Y-1.7316
X2.4948Y-4.3516
X3.5652Y-1.7316
X3.5652Y-4.3516
X3.7148Y-1.7316
X3.7148Y-4.3516
X4.7852Y-1.7316
X4.7852Y-4.3516
X4.9348Y-1.7316
X4.9348Y-4.3516
T4
X2.12Y-1.68
X2.12Y-4.3
X3.08Y-1.68
X3.08Y-4.3
X3.34Y-1.68
X3.34Y-4.3
X4.3Y-1.68
X4.3Y-4.3
X4.56Y-1.68
X4.56Y-4.3
X5.52Y-1.68
X5.52Y-4.3
T0
M30
