M48
;DRILL file {KiCad 4.0.6} date 06/30/17 10:23:30
;FORMAT={-:-/ absolute / inch / decimal}
FMAT,2
INCH,TZ
T1C0.016
T2C0.040
T3C0.033
T4C0.130
%
G90
G05
M72
T1
X2.12Y-2.51
X2.12Y-3.32
X2.12Y-5.13
X2.12Y-5.94
X2.1257Y-2.3416
X2.1257Y-4.9616
X2.1651Y-2.5581
X2.1651Y-5.1781
X2.1848Y-2.1447
X2.1848Y-4.7647
X2.1946Y-3.2865
X2.1946Y-5.9065
X2.2222Y-2.5483
X2.2222Y-5.1683
X2.2537Y-2.1939
X2.2537Y-4.8139
X2.2616Y-2.6467
X2.2616Y-5.2667
X2.2774Y-2.0325
X2.2774Y-4.6525
X2.3128Y-2.3711
X2.3128Y-4.9911
X2.34Y-1.91
X2.34Y-2.7
X2.34Y-4.53
X2.34Y-5.32
X2.39Y-1.98
X2.39Y-4.6
X2.4Y-1.92
X2.4Y-4.54
X2.4013Y-2.2431
X2.4013Y-4.8631
X2.4506Y-2.0758
X2.4506Y-4.6958
X2.46Y-2.01
X2.46Y-4.63
X2.47Y-2.39
X2.47Y-5.01
X2.49Y-3.4
X2.49Y-3.5
X2.49Y-6.02
X2.49Y-6.12
X2.51Y-3.93
X2.51Y-6.55
X2.5293Y-1.8475
X2.5293Y-4.4675
X2.54Y-3.6
X2.54Y-3.85
X2.54Y-6.22
X2.54Y-6.47
X2.57Y-3.9
X2.57Y-6.52
X2.5982Y-3.503
X2.5982Y-6.123
X2.605Y-1.795
X2.605Y-4.415
X2.63Y-3.47
X2.63Y-6.09
X2.64Y-3.88
X2.64Y-6.5
X2.6553Y-2.0758
X2.6553Y-4.6958
X2.6671Y-3.0601
X2.6671Y-3.4046
X2.6671Y-5.6801
X2.6671Y-6.0246
X2.7065Y-3.4046
X2.7065Y-6.0246
X2.71Y-1.8
X2.71Y-4.42
X2.73Y-1.91
X2.73Y-4.53
X2.7754Y-3.4046
X2.7754Y-6.0246
X2.7891Y-2.3987
X2.7891Y-5.0187
X2.79Y-3.55
X2.79Y-6.17
X2.83Y-3.29
X2.83Y-3.39
X2.83Y-5.91
X2.83Y-6.01
X2.84Y-3.88
X2.84Y-6.5
X2.8443Y-3.2372
X2.8443Y-5.8572
X2.87Y-3.19
X2.87Y-3.4
X2.87Y-5.81
X2.87Y-6.02
X2.89Y-2.64
X2.89Y-5.26
X2.9Y-3.56
X2.9Y-6.18
X2.9033Y-1.9872
X2.9033Y-4.6072
X2.9387Y-2.0365
X2.9387Y-4.6565
X2.98Y-3.8
X2.98Y-6.42
X2.9939Y-3.005
X2.9939Y-5.625
X3.02Y-3.2
X3.02Y-5.82
X3.0608Y-1.8888
X3.0608Y-4.5088
X3.08Y-3.13
X3.08Y-5.75
X3.0805Y-2.2038
X3.0805Y-4.8238
X3.1041Y-2.9105
X3.1041Y-5.5305
X3.14Y-2.4
X3.14Y-5.02
X3.19Y-2.51
X3.19Y-2.9
X3.19Y-5.13
X3.19Y-5.52
X3.34Y-2.51
X3.34Y-3.32
X3.34Y-5.13
X3.34Y-5.94
X3.3457Y-2.3416
X3.3457Y-4.9616
X3.3851Y-2.5581
X3.3851Y-5.1781
X3.4048Y-2.1447
X3.4048Y-4.7647
X3.4146Y-3.2865
X3.4146Y-5.9065
X3.4422Y-2.5483
X3.4422Y-5.1683
X3.4737Y-2.1939
X3.4737Y-4.8139
X3.4816Y-2.6467
X3.4816Y-5.2667
X3.4974Y-2.0325
X3.4974Y-4.6525
X3.5328Y-2.3711
X3.5328Y-4.9911
X3.56Y-1.91
X3.56Y-2.7
X3.56Y-4.53
X3.56Y-5.32
X3.61Y-1.98
X3.61Y-4.6
X3.62Y-1.92
X3.62Y-4.54
X3.6213Y-2.2431
X3.6213Y-4.8631
X3.6706Y-2.0758
X3.6706Y-4.6958
X3.68Y-2.01
X3.68Y-4.63
X3.69Y-2.39
X3.69Y-5.01
X3.71Y-3.4
X3.71Y-3.5
X3.71Y-6.02
X3.71Y-6.12
X3.73Y-3.93
X3.73Y-6.55
X3.7493Y-1.8475
X3.7493Y-4.4675
X3.76Y-3.6
X3.76Y-3.85
X3.76Y-6.22
X3.76Y-6.47
X3.79Y-3.9
X3.79Y-6.52
X3.8182Y-3.503
X3.8182Y-6.123
X3.825Y-1.795
X3.825Y-4.415
X3.85Y-3.47
X3.85Y-6.09
X3.86Y-3.88
X3.86Y-6.5
X3.8753Y-2.0758
X3.8753Y-4.6958
X3.8871Y-3.0601
X3.8871Y-3.4046
X3.8871Y-5.6801
X3.8871Y-6.0246
X3.9265Y-3.4046
X3.9265Y-6.0246
X3.93Y-1.8
X3.93Y-4.42
X3.95Y-1.91
X3.95Y-4.53
X3.9954Y-3.4046
X3.9954Y-6.0246
X4.0091Y-2.3987
X4.0091Y-5.0187
X4.01Y-3.55
X4.01Y-6.17
X4.05Y-3.29
X4.05Y-3.39
X4.05Y-5.91
X4.05Y-6.01
X4.06Y-3.88
X4.06Y-6.5
X4.0643Y-3.2372
X4.0643Y-5.8572
X4.09Y-3.19
X4.09Y-3.4
X4.09Y-5.81
X4.09Y-6.02
X4.11Y-2.64
X4.11Y-5.26
X4.12Y-3.56
X4.12Y-6.18
X4.1233Y-1.9872
X4.1233Y-4.6072
X4.1587Y-2.0365
X4.1587Y-4.6565
X4.2Y-3.8
X4.2Y-6.42
X4.2139Y-3.005
X4.2139Y-5.625
X4.24Y-3.2
X4.24Y-5.82
X4.2808Y-1.8888
X4.2808Y-4.5088
X4.3Y-3.13
X4.3Y-5.75
X4.3005Y-2.2038
X4.3005Y-4.8238
X4.3241Y-2.9105
X4.3241Y-5.5305
X4.36Y-2.4
X4.36Y-5.02
X4.41Y-2.51
X4.41Y-2.9
X4.41Y-5.13
X4.41Y-5.52
X4.56Y-2.51
X4.56Y-3.32
X4.56Y-5.13
X4.56Y-5.94
X4.5657Y-2.3416
X4.5657Y-4.9616
X4.6051Y-2.5581
X4.6051Y-5.1781
X4.6248Y-2.1447
X4.6248Y-4.7647
X4.6346Y-3.2865
X4.6346Y-5.9065
X4.6622Y-2.5483
X4.6622Y-5.1683
X4.6937Y-2.1939
X4.6937Y-4.8139
X4.7016Y-2.6467
X4.7016Y-5.2667
X4.7174Y-2.0325
X4.7174Y-4.6525
X4.7528Y-2.3711
X4.7528Y-4.9911
X4.78Y-1.91
X4.78Y-2.7
X4.78Y-4.53
X4.78Y-5.32
X4.83Y-1.98
X4.83Y-4.6
X4.84Y-1.92
X4.84Y-4.54
X4.8413Y-2.2431
X4.8413Y-4.8631
X4.8906Y-2.0758
X4.8906Y-4.6958
X4.9Y-2.01
X4.9Y-4.63
X4.91Y-2.39
X4.91Y-5.01
X4.93Y-3.4
X4.93Y-3.5
X4.93Y-6.02
X4.93Y-6.12
X4.95Y-3.93
X4.95Y-6.55
X4.9693Y-1.8475
X4.9693Y-4.4675
X4.98Y-3.6
X4.98Y-3.85
X4.98Y-6.22
X4.98Y-6.47
X5.01Y-3.9
X5.01Y-6.52
X5.0382Y-3.503
X5.0382Y-6.123
X5.045Y-1.795
X5.045Y-4.415
X5.07Y-3.47
X5.07Y-6.09
X5.08Y-3.88
X5.08Y-6.5
X5.0953Y-2.0758
X5.0953Y-4.6958
X5.1071Y-3.0601
X5.1071Y-3.4046
X5.1071Y-5.6801
X5.1071Y-6.0246
X5.1465Y-3.4046
X5.1465Y-6.0246
X5.15Y-1.8
X5.15Y-4.42
X5.17Y-1.91
X5.17Y-4.53
X5.2154Y-3.4046
X5.2154Y-6.0246
X5.2291Y-2.3987
X5.2291Y-5.0187
X5.23Y-3.55
X5.23Y-6.17
X5.27Y-3.29
X5.27Y-3.39
X5.27Y-5.91
X5.27Y-6.01
X5.28Y-3.88
X5.28Y-6.5
X5.2843Y-3.2372
X5.2843Y-5.8572
X5.31Y-3.19
X5.31Y-3.4
X5.31Y-5.81
X5.31Y-6.02
X5.33Y-2.64
X5.33Y-5.26
X5.34Y-3.56
X5.34Y-6.18
X5.3433Y-1.9872
X5.3433Y-4.6072
X5.3787Y-2.0365
X5.3787Y-4.6565
X5.42Y-3.8
X5.42Y-6.42
X5.4339Y-3.005
X5.4339Y-5.625
X5.46Y-3.2
X5.46Y-5.82
X5.5008Y-1.8888
X5.5008Y-4.5088
X5.52Y-3.13
X5.52Y-5.75
X5.5205Y-2.2038
X5.5205Y-4.8238
X5.5441Y-2.9105
X5.5441Y-5.5305
X5.58Y-2.4
X5.58Y-5.02
X5.63Y-2.51
X5.63Y-2.9
X5.63Y-5.13
X5.63Y-5.52
T2
X2.12Y-3.99
X2.12Y-4.09
X2.12Y-6.61
X2.12Y-6.71
X2.22Y-3.99
X2.22Y-4.09
X2.22Y-6.61
X2.22Y-6.71
X2.32Y-3.99
X2.32Y-4.09
X2.32Y-6.61
X2.32Y-6.71
X2.42Y-3.99
X2.42Y-4.09
X2.42Y-6.61
X2.42Y-6.71
X2.7Y-3.99
X2.7Y-4.09
X2.7Y-6.61
X2.7Y-6.71
X2.8Y-3.99
X2.8Y-4.09
X2.8Y-6.61
X2.8Y-6.71
X2.9Y-3.99
X2.9Y-4.09
X2.9Y-6.61
X2.9Y-6.71
X3.2Y-3.39
X3.2Y-3.49
X3.2Y-3.59
X3.2Y-3.69
X3.2Y-3.79
X3.2Y-3.89
X3.2Y-3.99
X3.2Y-4.09
X3.2Y-6.01
X3.2Y-6.11
X3.2Y-6.21
X3.2Y-6.31
X3.2Y-6.41
X3.2Y-6.51
X3.2Y-6.61
X3.2Y-6.71
X3.34Y-3.99
X3.34Y-4.09
X3.34Y-6.61
X3.34Y-6.71
X3.44Y-3.99
X3.44Y-4.09
X3.44Y-6.61
X3.44Y-6.71
X3.54Y-3.99
X3.54Y-4.09
X3.54Y-6.61
X3.54Y-6.71
X3.64Y-3.99
X3.64Y-4.09
X3.64Y-6.61
X3.64Y-6.71
X3.92Y-3.99
X3.92Y-4.09
X3.92Y-6.61
X3.92Y-6.71
X4.02Y-3.99
X4.02Y-4.09
X4.02Y-6.61
X4.02Y-6.71
X4.12Y-3.99
X4.12Y-4.09
X4.12Y-6.61
X4.12Y-6.71
X4.42Y-3.39
X4.42Y-3.49
X4.42Y-3.59
X4.42Y-3.69
X4.42Y-3.79
X4.42Y-3.89
X4.42Y-3.99
X4.42Y-4.09
X4.42Y-6.01
X4.42Y-6.11
X4.42Y-6.21
X4.42Y-6.31
X4.42Y-6.41
X4.42Y-6.51
X4.42Y-6.61
X4.42Y-6.71
X4.56Y-3.99
X4.56Y-4.09
X4.56Y-6.61
X4.56Y-6.71
X4.66Y-3.99
X4.66Y-4.09
X4.66Y-6.61
X4.66Y-6.71
X4.76Y-3.99
X4.76Y-4.09
X4.76Y-6.61
X4.76Y-6.71
X4.86Y-3.99
X4.86Y-4.09
X4.86Y-6.61
X4.86Y-6.71
X5.14Y-3.99
X5.14Y-4.09
X5.14Y-6.61
X5.14Y-6.71
X5.24Y-3.99
X5.24Y-4.09
X5.24Y-6.61
X5.24Y-6.71
X5.34Y-3.99
X5.34Y-4.09
X5.34Y-6.61
X5.34Y-6.71
X5.64Y-3.39
X5.64Y-3.49
X5.64Y-3.59
X5.64Y-3.69
X5.64Y-3.79
X5.64Y-3.89
X5.64Y-3.99
X5.64Y-4.09
X5.64Y-6.01
X5.64Y-6.11
X5.64Y-6.21
X5.64Y-6.31
X5.64Y-6.41
X5.64Y-6.51
X5.64Y-6.61
X5.64Y-6.71
T3
X2.4052Y-1.7216
X2.4052Y-4.3416
X2.5548Y-1.7216
X2.5548Y-4.3416
X3.6252Y-1.7216
X3.6252Y-4.3416
X3.7748Y-1.7216
X3.7748Y-4.3416
X4.8452Y-1.7216
X4.8452Y-4.3416
X4.9948Y-1.7216
X4.9948Y-4.3416
T4
X2.18Y-1.67
X2.18Y-4.29
X3.14Y-1.67
X3.14Y-4.29
X3.4Y-1.67
X3.4Y-4.29
X4.36Y-1.67
X4.36Y-4.29
X4.62Y-1.67
X4.62Y-4.29
X5.58Y-1.67
X5.58Y-4.29
T0
M30
