M48
;DRILL file {KiCad 4.0.6} date 06/29/17 16:58:40
;FORMAT={-:-/ absolute / inch / decimal}
FMAT,2
INCH,TZ
T1C0.016
T2C0.040
T3C0.033
T4C0.130
%
G90
G05
M72
T1
X3.01Y-2.23
X3.01Y-3.04
X3.01Y-4.85
X3.01Y-5.66
X3.0157Y-2.0616
X3.0157Y-4.6816
X3.0551Y-2.2781
X3.0551Y-4.8981
X3.0748Y-1.8647
X3.0748Y-4.4847
X3.0846Y-3.0065
X3.0846Y-5.6265
X3.1122Y-2.2683
X3.1122Y-4.8883
X3.1437Y-1.9139
X3.1437Y-4.5339
X3.1516Y-2.3667
X3.1516Y-4.9867
X3.1674Y-1.7525
X3.1674Y-4.3725
X3.2028Y-2.0911
X3.2028Y-4.7111
X3.23Y-1.63
X3.23Y-2.42
X3.23Y-4.25
X3.23Y-5.04
X3.28Y-1.7
X3.28Y-4.32
X3.29Y-1.64
X3.29Y-4.26
X3.2913Y-1.9631
X3.2913Y-4.5831
X3.3406Y-1.7958
X3.3406Y-4.4158
X3.35Y-1.73
X3.35Y-4.35
X3.36Y-2.11
X3.36Y-4.73
X3.38Y-3.12
X3.38Y-3.22
X3.38Y-5.74
X3.38Y-5.84
X3.4Y-3.65
X3.4Y-6.27
X3.4193Y-1.5675
X3.4193Y-4.1875
X3.43Y-3.32
X3.43Y-3.57
X3.43Y-5.94
X3.43Y-6.19
X3.46Y-3.62
X3.46Y-6.24
X3.4882Y-3.223
X3.4882Y-5.843
X3.495Y-1.515
X3.495Y-4.135
X3.52Y-3.19
X3.52Y-5.81
X3.53Y-3.6
X3.53Y-6.22
X3.5453Y-1.7958
X3.5453Y-4.4158
X3.5571Y-2.7801
X3.5571Y-3.1246
X3.5571Y-5.4001
X3.5571Y-5.7446
X3.5965Y-3.1246
X3.5965Y-5.7446
X3.6Y-1.52
X3.6Y-4.14
X3.62Y-1.63
X3.62Y-4.25
X3.6654Y-3.1246
X3.6654Y-5.7446
X3.6791Y-2.1187
X3.6791Y-4.7387
X3.68Y-3.27
X3.68Y-5.89
X3.72Y-3.01
X3.72Y-3.11
X3.72Y-5.63
X3.72Y-5.73
X3.73Y-3.6
X3.73Y-6.22
X3.7343Y-2.9572
X3.7343Y-5.5772
X3.76Y-2.91
X3.76Y-3.12
X3.76Y-5.53
X3.76Y-5.74
X3.78Y-2.36
X3.78Y-4.98
X3.79Y-3.28
X3.79Y-5.9
X3.7933Y-1.7072
X3.7933Y-4.3272
X3.8287Y-1.7565
X3.8287Y-4.3765
X3.87Y-3.52
X3.87Y-6.14
X3.8839Y-2.725
X3.8839Y-5.345
X3.91Y-2.92
X3.91Y-5.54
X3.9508Y-1.6088
X3.9508Y-4.2288
X3.97Y-2.85
X3.97Y-5.47
X3.9705Y-1.9238
X3.9705Y-4.5438
X3.9941Y-2.6305
X3.9941Y-5.2505
X4.03Y-2.12
X4.03Y-4.74
X4.08Y-2.23
X4.08Y-2.62
X4.08Y-4.85
X4.08Y-5.24
X4.23Y-2.23
X4.23Y-3.04
X4.23Y-4.85
X4.23Y-5.66
X4.2357Y-2.0616
X4.2357Y-4.6816
X4.2751Y-2.2781
X4.2751Y-4.8981
X4.2948Y-1.8647
X4.2948Y-4.4847
X4.3046Y-3.0065
X4.3046Y-5.6265
X4.3322Y-2.2683
X4.3322Y-4.8883
X4.3637Y-1.9139
X4.3637Y-4.5339
X4.3716Y-2.3667
X4.3716Y-4.9867
X4.3874Y-1.7525
X4.3874Y-4.3725
X4.4228Y-2.0911
X4.4228Y-4.7111
X4.45Y-1.63
X4.45Y-2.42
X4.45Y-4.25
X4.45Y-5.04
X4.5Y-1.7
X4.5Y-4.32
X4.51Y-1.64
X4.51Y-4.26
X4.5113Y-1.9631
X4.5113Y-4.5831
X4.5606Y-1.7958
X4.5606Y-4.4158
X4.57Y-1.73
X4.57Y-4.35
X4.58Y-2.11
X4.58Y-4.73
X4.6Y-3.12
X4.6Y-3.22
X4.6Y-5.74
X4.6Y-5.84
X4.62Y-3.65
X4.62Y-6.27
X4.6393Y-1.5675
X4.6393Y-4.1875
X4.65Y-3.32
X4.65Y-3.57
X4.65Y-5.94
X4.65Y-6.19
X4.68Y-3.62
X4.68Y-6.24
X4.7082Y-3.223
X4.7082Y-5.843
X4.715Y-1.515
X4.715Y-4.135
X4.74Y-3.19
X4.74Y-5.81
X4.75Y-3.6
X4.75Y-6.22
X4.7653Y-1.7958
X4.7653Y-4.4158
X4.7771Y-2.7801
X4.7771Y-3.1246
X4.7771Y-5.4001
X4.7771Y-5.7446
X4.8165Y-3.1246
X4.8165Y-5.7446
X4.82Y-1.52
X4.82Y-4.14
X4.84Y-1.63
X4.84Y-4.25
X4.8854Y-3.1246
X4.8854Y-5.7446
X4.8991Y-2.1187
X4.8991Y-4.7387
X4.9Y-3.27
X4.9Y-5.89
X4.94Y-3.01
X4.94Y-3.11
X4.94Y-5.63
X4.94Y-5.73
X4.95Y-3.6
X4.95Y-6.22
X4.9543Y-2.9572
X4.9543Y-5.5772
X4.98Y-2.91
X4.98Y-3.12
X4.98Y-5.53
X4.98Y-5.74
X5.Y-2.36
X5.Y-4.98
X5.01Y-3.28
X5.01Y-5.9
X5.0133Y-1.7072
X5.0133Y-4.3272
X5.0487Y-1.7565
X5.0487Y-4.3765
X5.09Y-3.52
X5.09Y-6.14
X5.1039Y-2.725
X5.1039Y-5.345
X5.13Y-2.92
X5.13Y-5.54
X5.1708Y-1.6088
X5.1708Y-4.2288
X5.19Y-2.85
X5.19Y-5.47
X5.1905Y-1.9238
X5.1905Y-4.5438
X5.2141Y-2.6305
X5.2141Y-5.2505
X5.25Y-2.12
X5.25Y-4.74
X5.3Y-2.23
X5.3Y-2.62
X5.3Y-4.85
X5.3Y-5.24
X5.45Y-2.23
X5.45Y-3.04
X5.45Y-4.85
X5.45Y-5.66
X5.4557Y-2.0616
X5.4557Y-4.6816
X5.4951Y-2.2781
X5.4951Y-4.8981
X5.5148Y-1.8647
X5.5148Y-4.4847
X5.5246Y-3.0065
X5.5246Y-5.6265
X5.5522Y-2.2683
X5.5522Y-4.8883
X5.5837Y-1.9139
X5.5837Y-4.5339
X5.5916Y-2.3667
X5.5916Y-4.9867
X5.6074Y-1.7525
X5.6074Y-4.3725
X5.6428Y-2.0911
X5.6428Y-4.7111
X5.67Y-1.63
X5.67Y-2.42
X5.67Y-4.25
X5.67Y-5.04
X5.72Y-1.7
X5.72Y-4.32
X5.73Y-1.64
X5.73Y-4.26
X5.7313Y-1.9631
X5.7313Y-4.5831
X5.7806Y-1.7958
X5.7806Y-4.4158
X5.79Y-1.73
X5.79Y-4.35
X5.8Y-2.11
X5.8Y-4.73
X5.82Y-3.12
X5.82Y-3.22
X5.82Y-5.74
X5.82Y-5.84
X5.84Y-3.65
X5.84Y-6.27
X5.8593Y-1.5675
X5.8593Y-4.1875
X5.87Y-3.32
X5.87Y-3.57
X5.87Y-5.94
X5.87Y-6.19
X5.9Y-3.62
X5.9Y-6.24
X5.9282Y-3.223
X5.9282Y-5.843
X5.935Y-1.515
X5.935Y-4.135
X5.96Y-3.19
X5.96Y-5.81
X5.97Y-3.6
X5.97Y-6.22
X5.9853Y-1.7958
X5.9853Y-4.4158
X5.9971Y-2.7801
X5.9971Y-3.1246
X5.9971Y-5.4001
X5.9971Y-5.7446
X6.0365Y-3.1246
X6.0365Y-5.7446
X6.04Y-1.52
X6.04Y-4.14
X6.06Y-1.63
X6.06Y-4.25
X6.1054Y-3.1246
X6.1054Y-5.7446
X6.1191Y-2.1187
X6.1191Y-4.7387
X6.12Y-3.27
X6.12Y-5.89
X6.16Y-3.01
X6.16Y-3.11
X6.16Y-5.63
X6.16Y-5.73
X6.17Y-3.6
X6.17Y-6.22
X6.1743Y-2.9572
X6.1743Y-5.5772
X6.2Y-2.91
X6.2Y-3.12
X6.2Y-5.53
X6.2Y-5.74
X6.22Y-2.36
X6.22Y-4.98
X6.23Y-3.28
X6.23Y-5.9
X6.2333Y-1.7072
X6.2333Y-4.3272
X6.2687Y-1.7565
X6.2687Y-4.3765
X6.31Y-3.52
X6.31Y-6.14
X6.3239Y-2.725
X6.3239Y-5.345
X6.35Y-2.92
X6.35Y-5.54
X6.3908Y-1.6088
X6.3908Y-4.2288
X6.41Y-2.85
X6.41Y-5.47
X6.4105Y-1.9238
X6.4105Y-4.5438
X6.4341Y-2.6305
X6.4341Y-5.2505
X6.47Y-2.12
X6.47Y-4.74
X6.52Y-2.23
X6.52Y-2.62
X6.52Y-4.85
X6.52Y-5.24
T2
X3.01Y-3.71
X3.01Y-3.81
X3.01Y-6.33
X3.01Y-6.43
X3.11Y-3.71
X3.11Y-3.81
X3.11Y-6.33
X3.11Y-6.43
X3.21Y-3.71
X3.21Y-3.81
X3.21Y-6.33
X3.21Y-6.43
X3.31Y-3.71
X3.31Y-3.81
X3.31Y-6.33
X3.31Y-6.43
X3.59Y-3.71
X3.59Y-3.81
X3.59Y-6.33
X3.59Y-6.43
X3.69Y-3.71
X3.69Y-3.81
X3.69Y-6.33
X3.69Y-6.43
X3.79Y-3.71
X3.79Y-3.81
X3.79Y-6.33
X3.79Y-6.43
X4.09Y-3.11
X4.09Y-3.21
X4.09Y-3.31
X4.09Y-3.41
X4.09Y-3.51
X4.09Y-3.61
X4.09Y-3.71
X4.09Y-3.81
X4.09Y-5.73
X4.09Y-5.83
X4.09Y-5.93
X4.09Y-6.03
X4.09Y-6.13
X4.09Y-6.23
X4.09Y-6.33
X4.09Y-6.43
X4.23Y-3.71
X4.23Y-3.81
X4.23Y-6.33
X4.23Y-6.43
X4.33Y-3.71
X4.33Y-3.81
X4.33Y-6.33
X4.33Y-6.43
X4.43Y-3.71
X4.43Y-3.81
X4.43Y-6.33
X4.43Y-6.43
X4.53Y-3.71
X4.53Y-3.81
X4.53Y-6.33
X4.53Y-6.43
X4.81Y-3.71
X4.81Y-3.81
X4.81Y-6.33
X4.81Y-6.43
X4.91Y-3.71
X4.91Y-3.81
X4.91Y-6.33
X4.91Y-6.43
X5.01Y-3.71
X5.01Y-3.81
X5.01Y-6.33
X5.01Y-6.43
X5.31Y-3.11
X5.31Y-3.21
X5.31Y-3.31
X5.31Y-3.41
X5.31Y-3.51
X5.31Y-3.61
X5.31Y-3.71
X5.31Y-3.81
X5.31Y-5.73
X5.31Y-5.83
X5.31Y-5.93
X5.31Y-6.03
X5.31Y-6.13
X5.31Y-6.23
X5.31Y-6.33
X5.31Y-6.43
X5.45Y-3.71
X5.45Y-3.81
X5.45Y-6.33
X5.45Y-6.43
X5.55Y-3.71
X5.55Y-3.81
X5.55Y-6.33
X5.55Y-6.43
X5.65Y-3.71
X5.65Y-3.81
X5.65Y-6.33
X5.65Y-6.43
X5.75Y-3.71
X5.75Y-3.81
X5.75Y-6.33
X5.75Y-6.43
X6.03Y-3.71
X6.03Y-3.81
X6.03Y-6.33
X6.03Y-6.43
X6.13Y-3.71
X6.13Y-3.81
X6.13Y-6.33
X6.13Y-6.43
X6.23Y-3.71
X6.23Y-3.81
X6.23Y-6.33
X6.23Y-6.43
X6.53Y-3.11
X6.53Y-3.21
X6.53Y-3.31
X6.53Y-3.41
X6.53Y-3.51
X6.53Y-3.61
X6.53Y-3.71
X6.53Y-3.81
X6.53Y-5.73
X6.53Y-5.83
X6.53Y-5.93
X6.53Y-6.03
X6.53Y-6.13
X6.53Y-6.23
X6.53Y-6.33
X6.53Y-6.43
T3
X3.2952Y-1.4416
X3.2952Y-4.0616
X3.4448Y-1.4416
X3.4448Y-4.0616
X4.5152Y-1.4416
X4.5152Y-4.0616
X4.6648Y-1.4416
X4.6648Y-4.0616
X5.7352Y-1.4416
X5.7352Y-4.0616
X5.8848Y-1.4416
X5.8848Y-4.0616
T4
X3.07Y-1.39
X3.07Y-4.01
X4.03Y-1.39
X4.03Y-4.01
X4.29Y-1.39
X4.29Y-4.01
X5.25Y-1.39
X5.25Y-4.01
X5.51Y-1.39
X5.51Y-4.01
X6.47Y-1.39
X6.47Y-4.01
T0
M30
