G04 #@! TF.FileFunction,Soldermask,Bot*
%FSLAX46Y46*%
G04 Gerber Fmt 4.6, Leading zero omitted, Abs format (unit mm)*
G04 Created by KiCad (PCBNEW 4.0.6) date 06/29/17 16:58:46*
%MOMM*%
%LPD*%
G01*
G04 APERTURE LIST*
%ADD10C,0.100000*%
%ADD11C,3.502000*%
%ADD12C,1.048360*%
%ADD13C,2.079600*%
G04 APERTURE END LIST*
D10*
D11*
X139954000Y-101854000D03*
X108966000Y-101854000D03*
X77978000Y-101854000D03*
X139954000Y-35306000D03*
X108966000Y-35306000D03*
D12*
X149473920Y-103164640D03*
X145674080Y-103164640D03*
X118485920Y-103164640D03*
X114686080Y-103164640D03*
X87497920Y-103164640D03*
X83698080Y-103164640D03*
X149473920Y-36616640D03*
X145674080Y-36616640D03*
X118485920Y-36616640D03*
X114686080Y-36616640D03*
D11*
X164338000Y-101854000D03*
X133350000Y-101854000D03*
X102362000Y-101854000D03*
X164338000Y-35306000D03*
X133350000Y-35306000D03*
D13*
X165862000Y-163322000D03*
X165862000Y-160782000D03*
X165862000Y-158242000D03*
X165862000Y-155702000D03*
X134874000Y-163322000D03*
X134874000Y-160782000D03*
X134874000Y-158242000D03*
X134874000Y-155702000D03*
X103886000Y-163322000D03*
X103886000Y-160782000D03*
X103886000Y-158242000D03*
X103886000Y-155702000D03*
X165862000Y-96774000D03*
X165862000Y-94234000D03*
X165862000Y-91694000D03*
X165862000Y-89154000D03*
X134874000Y-96774000D03*
X134874000Y-94234000D03*
X134874000Y-91694000D03*
X134874000Y-89154000D03*
X158242000Y-160782000D03*
X158242000Y-163322000D03*
X155702000Y-160782000D03*
X155702000Y-163322000D03*
X153162000Y-160782000D03*
X153162000Y-163322000D03*
X127254000Y-160782000D03*
X127254000Y-163322000D03*
X124714000Y-160782000D03*
X124714000Y-163322000D03*
X122174000Y-160782000D03*
X122174000Y-163322000D03*
X96266000Y-160782000D03*
X96266000Y-163322000D03*
X93726000Y-160782000D03*
X93726000Y-163322000D03*
X91186000Y-160782000D03*
X91186000Y-163322000D03*
X158242000Y-94234000D03*
X158242000Y-96774000D03*
X155702000Y-94234000D03*
X155702000Y-96774000D03*
X153162000Y-94234000D03*
X153162000Y-96774000D03*
X127254000Y-94234000D03*
X127254000Y-96774000D03*
X124714000Y-94234000D03*
X124714000Y-96774000D03*
X122174000Y-94234000D03*
X122174000Y-96774000D03*
X138430000Y-163322000D03*
X138430000Y-160782000D03*
X140970000Y-163322000D03*
X140970000Y-160782000D03*
X143510000Y-163322000D03*
X143510000Y-160782000D03*
X146050000Y-163322000D03*
X146050000Y-160782000D03*
X107442000Y-163322000D03*
X107442000Y-160782000D03*
X109982000Y-163322000D03*
X109982000Y-160782000D03*
X112522000Y-163322000D03*
X112522000Y-160782000D03*
X115062000Y-163322000D03*
X115062000Y-160782000D03*
X76454000Y-163322000D03*
X76454000Y-160782000D03*
X78994000Y-163322000D03*
X78994000Y-160782000D03*
X81534000Y-163322000D03*
X81534000Y-160782000D03*
X84074000Y-163322000D03*
X84074000Y-160782000D03*
X138430000Y-96774000D03*
X138430000Y-94234000D03*
X140970000Y-96774000D03*
X140970000Y-94234000D03*
X143510000Y-96774000D03*
X143510000Y-94234000D03*
X146050000Y-96774000D03*
X146050000Y-94234000D03*
X107442000Y-96774000D03*
X107442000Y-94234000D03*
X109982000Y-96774000D03*
X109982000Y-94234000D03*
X112522000Y-96774000D03*
X112522000Y-94234000D03*
X115062000Y-96774000D03*
X115062000Y-94234000D03*
X165862000Y-153162000D03*
X165862000Y-150622000D03*
X165862000Y-148082000D03*
X165862000Y-145542000D03*
X134874000Y-153162000D03*
X134874000Y-150622000D03*
X134874000Y-148082000D03*
X134874000Y-145542000D03*
X103886000Y-153162000D03*
X103886000Y-150622000D03*
X103886000Y-148082000D03*
X103886000Y-145542000D03*
X165862000Y-86614000D03*
X165862000Y-84074000D03*
X165862000Y-81534000D03*
X165862000Y-78994000D03*
X134874000Y-86614000D03*
X134874000Y-84074000D03*
X134874000Y-81534000D03*
X134874000Y-78994000D03*
X76454000Y-96774000D03*
X76454000Y-94234000D03*
X78994000Y-96774000D03*
X78994000Y-94234000D03*
X81534000Y-96774000D03*
X81534000Y-94234000D03*
X84074000Y-96774000D03*
X84074000Y-94234000D03*
X96266000Y-94234000D03*
X96266000Y-96774000D03*
X93726000Y-94234000D03*
X93726000Y-96774000D03*
X91186000Y-94234000D03*
X91186000Y-96774000D03*
X103886000Y-96774000D03*
X103886000Y-94234000D03*
X103886000Y-91694000D03*
X103886000Y-89154000D03*
X103886000Y-86614000D03*
X103886000Y-84074000D03*
X103886000Y-81534000D03*
X103886000Y-78994000D03*
D12*
X87497920Y-36616640D03*
X83698080Y-36616640D03*
D11*
X102362000Y-35306000D03*
X77978000Y-35306000D03*
M02*
